<?xml version="1.0" encoding="UTF-8"?>
<svg width="24px" height="24px" viewBox="0 0 24 24" version="1.1" xmlns="http://www.w3.org/2000/svg" xmlns:xlink="http://www.w3.org/1999/xlink">
    <!-- Generator: Sketch 48.1 (47250) - http://www.bohemiancoding.com/sketch -->
    <title>Rectangle 6</title>
    <desc>Created with Sketch.</desc>
    <defs></defs>
    <g id="Artboard-2" stroke="none" stroke-width="1" fill="none" fill-rule="evenodd" transform="translate(-556.000000, -771.000000)">
        <g id="AccountList_Icon" transform="translate(556.000000, 771.000000)" fill="#FFFFFF" fill-rule="nonzero">
            <g id="AccountList" transform="translate(0.000000, 2.000000)">
                <g id="Group" transform="translate(0.000000, 0.168314)">
                    <path d="M5.93408175,0.0955752778 C5.65367722,0.121209858 5.43977747,0.350157049 5.4409919,0.623353056 L5.4409919,2.20668639 L3.26459533,2.20668639 C3.24760158,2.20591293 3.23057979,2.20591293 3.21358604,2.20668639 C2.93318151,2.23232097 2.71928176,2.46126816 2.72049619,2.73446417 L2.72049619,4.3177975 L0.544099622,4.3177975 C0.527105872,4.31702404 0.510084077,4.31702404 0.493090327,4.3177975 C0.212685796,4.34343208 -0.00121395504,4.57237927 4.79391264e-07,4.84557528 L4.79391264e-07,18.0400197 C-0.00277458378,18.2303553 0.10031892,18.407396 0.269804472,18.5033494 C0.439290023,18.5993027 0.64890922,18.5993027 0.818394772,18.5033494 C0.987880323,18.407396 1.09097383,18.2303553 1.08819876,18.0400197 L1.08819876,5.37335306 L23.3962636,5.37335306 C23.5924853,5.37604488 23.7750009,5.27604387 23.8739215,5.11164238 C23.9728422,4.9472409 23.9728422,4.74390966 23.8739215,4.57950817 C23.7750009,4.41510668 23.5924853,4.31510568 23.3962636,4.3177975 L21.219867,4.3177975 L21.219867,2.73446417 C21.219837,2.44299262 20.9762531,2.20671553 20.6757679,2.20668639 L18.4993713,2.20668639 L18.4993713,0.623353056 C18.4993413,0.33188151 18.2557574,0.0956044206 17.9552722,0.0955752778 L5.98509104,0.0955752778 C5.96809729,0.0948018181 5.9510755,0.0948018181 5.93408175,0.0955752778 Z M6.52919019,1.15113083 L17.411173,1.15113083 L17.411173,2.20668639 L6.52919019,2.20668639 L6.52919019,1.15113083 Z M3.80869447,3.26224194 L20.1316687,3.26224194 L20.1316687,4.3177975 L3.80869447,4.3177975 L3.80869447,3.26224194 Z M23.3962636,4.36338128 C23.1159458,4.39326145 22.9056101,4.62592296 22.9116753,4.89940559 L22.8521644,17.5122419 L0.604213671,17.5180444 C0.407991978,17.5153526 0.225476397,17.6153536 0.126555715,17.7797551 C0.0276350318,17.9441566 0.0276350318,18.1474878 0.126555715,18.3118893 C0.225476397,18.4762908 0.407991978,18.5762918 0.604213671,18.5736 L23.3962636,18.5677975 C23.6967488,18.5677684 23.9403327,18.3314913 23.9403627,18.0400197 L23.9998736,4.89940559 C24.0032491,4.74740761 23.9388934,4.60137917 23.8232881,4.49871811 C23.7076828,4.39605704 23.552056,4.34673425 23.3962636,4.36338128 Z M11.9701816,6.42890861 C10.6243899,6.42890861 9.52173547,7.49849778 9.52173547,8.80390861 C9.52173547,10.1093406 10.6243899,11.1789086 11.9701816,11.1789086 C13.3159733,11.1789086 14.4186277,10.1093406 14.4186277,8.80390861 C14.4186277,7.49849778 13.3159733,6.42890861 11.9701816,6.42890861 Z M11.9701816,7.48446417 C12.7278663,7.48446417 13.3304295,8.0689675 13.3304295,8.80390861 C13.3304295,9.53886556 12.7278663,10.1233531 11.9701816,10.1233531 C11.2124969,10.1233531 10.6099338,9.53886556 10.6099338,8.80390861 C10.6099338,8.0689675 11.2124969,7.48446417 11.9701816,7.48446417 Z M11.9701816,11.7066864 C9.17378706,11.7066864 6.80123976,13.5421919 6.80123976,15.9289086 C6.8012698,16.2203802 7.04485369,16.4566572 7.3453389,16.4566864 L16.5950243,16.4566864 C16.8955095,16.4566572 17.1390934,16.2203802 17.1391235,15.9289086 C17.1391235,13.5421919 14.7665762,11.7066864 11.9701816,11.7066864 Z M11.9701816,12.7622419 C14.0354807,12.7622419 15.6581343,13.9428544 15.9829128,15.4011308 L7.95745043,15.4011308 C8.28222892,13.9428544 9.90488247,12.7622419 11.9701816,12.7622419 Z" id="Shape"></path>
                </g>
            </g>
        </g>
    </g>
</svg>