<?xml version="1.0" encoding="utf-8"?>
<!-- Generator: Adobe Illustrator 19.0.0, SVG Export Plug-In . SVG Version: 6.00 Build 0)  -->
<svg version="1.1" id="Layer_1" xmlns="http://www.w3.org/2000/svg" xmlns:xlink="http://www.w3.org/1999/xlink" x="0px" y="0px"
	width="20px" height="20px" viewBox="0 0 20 20">
<path class="st0" d="M19.5,0.5c-0.1,0-0.2,0-0.3,0.1L15,3.9L10,3C9.9,3,9.8,3,9.7,3.1L4.6,6.6L0.5,5.5C0.3,5.4,0,5.6-0.1,5.8v0.1
	v6.4v6.8c0,0.3,0.2,0.5,0.5,0.5h19.1c0.3,0,0.5-0.2,0.5-0.5V8.9v-8C20,0.7,20,0.5,19.5,0.5L19.5,0.5z M19.2,1.9v5.3c0,0,0,0-0.1,0
	l-3.9,3.3l-5-0.9c-0.1,0-0.2,0-0.3,0.1L4.8,13L1,12.2V6.5l3.8,1c0.1,0,0.3,0,0.4-0.1l5.1-3.5l5,0.9c0.1,0,0.3,0,0.4-0.1L19.2,1.9z
	 M19.2,8.3v0.6v9.8H1V13l3.8,0.8c0.1,0,0.2,0,0.3-0.1l5.1-3.3l5,0.9c0.1,0,0.3,0,0.4-0.1L19.2,8.3z"/>
</svg>
