<?xml version="1.0" encoding="utf-8"?>
<!-- Generator: Adobe Illustrator 19.0.0, SVG Export Plug-In . SVG Version: 6.00 Build 0)  -->
<svg version="1.1" id="Layer_1" xmlns="http://www.w3.org/2000/svg" xmlns:xlink="http://www.w3.org/1999/xlink" x="0px" y="0px"
	 viewBox="-265 437 20 20" style="enable-background:new -265 437 20 20;" xml:space="preserve">
<g>
	<rect x="-263.4" y="437" width="0.8" height="4.8"/>
</g>
<g>
	<rect x="-263.4" y="449.8" width="0.8" height="6.4"/>
</g>
<g>
	<rect x="-255.4" y="437" width="0.8" height="9.6"/>
</g>
<g>
	<rect x="-255.4" y="453" width="0.8" height="3.2"/>
</g>
<g>
	<rect x="-247.4" y="453" width="0.8" height="3.2"/>
</g>
<g>
	<rect x="-247.4" y="437" width="0.8" height="3.2"/>
</g>
<g>
	<path d="M-261,450.2h-4v-8.8h4V450.2z M-264.2,449.4h2.4v-7.2h-2.4V449.4z"/>
</g>
<g>
	<path d="M-253,453.4h-4v-7.2h4V453.4z M-256.2,452.6h2.4V447h-2.4V452.6z"/>
</g>
<g>
	<path d="M-245,453.4h-4v-13.6h4V453.4z M-248.2,452.6h2.4v-12h-2.4V452.6z"/>
</g>
</svg>
