<?xml version="1.0" encoding="utf-8"?>
<!-- Generator: Adobe Illustrator 19.0.0, SVG Export Plug-In . SVG Version: 6.00 Build 0)  -->
<svg version="1.1"
	 id="Layer_1" xmlns:svg="http://www.w3.org/2000/svg" xmlns:rdf="http://www.w3.org/1999/02/22-rdf-syntax-ns#" xmlns:inkscape="http://www.inkscape.org/namespaces/inkscape" xmlns:sodipodi="http://sodipodi.sourceforge.net/DTD/sodipodi-0.dtd" xmlns:cc="http://creativecommons.org/ns#" xmlns:dc="http://purl.org/dc/elements/1.1/"
	 xmlns="http://www.w3.org/2000/svg" xmlns:xlink="http://www.w3.org/1999/xlink" x="0px" y="0px" viewBox="-265 437 20 20"
	 style="enable-background:new -265 437 20 20;" xml:space="preserve">
<path d="M-245.5,437c-0.1,0-0.2,0-0.3,0.1l-4.2,3.3l-5-0.9c-0.1,0-0.2,0-0.3,0.1l-5.1,3.5l-4.1-1.1c-0.2-0.1-0.5,0.1-0.6,0.3
	c0,0,0,0.1,0,0.1v6.4v6.8c0,0.3,0.2,0.5,0.5,0.5h19.1c0.3,0,0.5-0.2,0.5-0.5v-10.2v-8C-245,437.2-245.2,437-245.5,437
	C-245.5,437-245.5,437-245.5,437z M-245.9,438.4v5.3c0,0,0,0-0.1,0l-3.9,3.3l-5-0.9c-0.1,0-0.2,0-0.3,0.1l-5.1,3.3l-3.8-0.8V443
	l3.8,1c0.1,0,0.3,0,0.4-0.1l5.1-3.5l5,0.9c0.1,0,0.3,0,0.4-0.1L-245.9,438.4z M-245.9,444.8v0.6v9.8h-18.2v-5.6l3.8,0.8
	c0.1,0,0.2,0,0.3-0.1l5.1-3.3l5,0.9c0.1,0,0.3,0,0.4-0.1L-245.9,444.8z"/>
</svg>
