<svg xmlns="http://www.w3.org/2000/svg" data-name="Layer 1" viewBox="0 0 90 80" x="0px" y="0px">
    <g fill="#fff">
        <path d="M32,50v3c0,1.65-1.74,3-3.87,3H27.87C25.74,56,24,54.65,24,53V50" transform="translate(-5 -10)" />
        <path d="M76,50v3c0,1.65-1.74,3-3.87,3H71.87C69.74,56,68,54.65,68,53V50" transform="translate(-5 -10)" />
        <path d="M88.79,24H67V18c0-4.41-3.33-8-8.53-8h-15C38.24,10,34,13.59,34,18v6H11.21A6.23,6.23,0,0,0,5,30.21V82.79A6.23,6.23,0,0,0,11.21,89H88.79A6.23,6.23,0,0,0,95,82.79V30.21A6.23,6.23,0,0,0,88.79,24ZM37,18c0-2.71,3-5,6.45-5h15C62,13,64,15.29,64,18v6H37V18ZM92,82.79A3.21,3.21,0,0,1,88.79,86H11.21A3.21,3.21,0,0,1,8,82.79V49H92V82.79ZM92,47H8V30.21A3.21,3.21,0,0,1,11.21,27H88.79A3.21,3.21,0,0,1,92,30.21V47Z" transform="translate(-5 -10)" />
    </g>
</svg>
