<svg xmlns="http://www.w3.org/2000/svg" xmlns:xlink="http://www.w3.org/1999/xlink" version="1.1" x="0px" y="0px" viewBox="0 0 48 60" style="enable-background:new 0 0 48 48;" xml:space="preserve">
    <g fill="#fff"> 
        <path d="M6,48c-0.552,0-1-0.447-1-1v-7c0-0.553,0.448-1,1-1s1,0.447,1,1v7C7,47.553,6.552,48,6,48z" />
        <path d="M6,31c-0.552,0-1-0.447-1-1V1c0-0.553,0.448-1,1-1s1,0.447,1,1v29C7,30.553,6.552,31,6,31z" />
        <g>
            <path d="M6,41c-3.309,0-6-2.691-6-6s2.691-6,6-6s6,2.691,6,6S9.309,41,6,41z M6,31c-2.206,0-4,1.794-4,4s1.794,4,4,4s4-1.794,4-4    S8.206,31,6,31z" />
            <path d="M42,48c-0.552,0-1-0.447-1-1V26c0-0.553,0.448-1,1-1s1,0.447,1,1v21C43,47.553,42.552,48,42,48z" />
            <path d="M42,17c-0.552,0-1-0.447-1-1V1c0-0.553,0.448-1,1-1s1,0.447,1,1v15C43,16.553,42.552,17,42,17z" />
            <path d="M42,27c-3.309,0-6-2.691-6-6s2.691-6,6-6s6,2.691,6,6S45.309,27,42,27z M42,17c-2.206,0-4,1.794-4,4s1.794,4,4,4    s4-1.794,4-4S44.206,17,42,17z" />
            <path d="M24,48c-0.552,0-1-0.447-1-1V21c0-0.553,0.448-1,1-1s1,0.447,1,1v26C25,47.553,24.552,48,24,48z" />
            <path d="M24,12c-0.552,0-1-0.447-1-1V1c0-0.553,0.448-1,1-1s1,0.447,1,1v10C25,11.553,24.552,12,24,12z" />
            <path d="M24,22c-3.309,0-6-2.691-6-6s2.691-6,6-6c3.309,0,6,2.691,6,6S27.309,22,24,22z M24,12c-2.206,0-4,1.794-4,4s1.794,4,4,4    s4-1.794,4-4S26.206,12,24,12z" />
        </g>
    </g>
</svg>
