<svg id="Layer_1" xmlns="http://www.w3.org/2000/svg" viewBox="0 0 48 48">
    <path d="M3.44,33.91a.5.5,0,0,1-.4-.2L.43,30.17l.8-.59,2,2.67L5,24.65a.5.5,0,0,1,.91-.16l1.71,2.65H8.93l2.51-1.41a.5.5,0,0,1,.59.07l.73.7,2.75-10.38a.5.5,0,0,1,.48-.37.56.56,0,0,1,.49.36L20.17,28.9,25.92,8.57a.5.5,0,0,1,.93-.08l.92,1.89,1.61.33a.5.5,0,0,1,.37.33L31.12,15l1.61-4a.5.5,0,0,1,1,.12l2.77,20.64.51.15,2.42-12.11a.47.47,0,0,1,.52-.4.5.5,0,0,1,.47.45l.6,6.22L43.06,7.94a.5.5,0,0,1,.46-.44.49.49,0,0,1,.52.36l1.5,5.32,1.19-4.3a.5.5,0,0,1,.4-.36l.79-.13.16,1-.48.08L46,15.18a.5.5,0,0,1-.48.37h0a.5.5,0,0,1-.48-.36l-1.3-4.6-2.34,20.3a.5.5,0,0,1-.5.44h0a.5.5,0,0,1-.49-.45l-.73-7.54-1.86,9.32a.5.5,0,0,1-.23.33.51.51,0,0,1-.4.05l-1.35-.38a.5.5,0,0,1-.36-.42l-2.56-19.1-1.4,3.44a.53.53,0,0,1-.48.31.5.5,0,0,1-.46-.34l-1.7-4.92-1.58-.32A.5.5,0,0,1,27,11l-.45-.93L20.66,30.86a.5.5,0,0,1-.48.36h0a.5.5,0,0,1-.48-.36L16,18.13l-2.51,9.45a.5.5,0,0,1-.83.23l-1.08-1-2.3,1.29a.51.51,0,0,1-.24.06H7.33a.5.5,0,0,1-.42-.23L5.7,26l-1.77,7.5a.5.5,0,0,1-.39.38Z"/>
</svg>
