<svg version="1" xmlns="http://www.w3.org/2000/svg" width="140" height="140" viewBox="0 0 140 140"><path fill="#F3F3F3" d="M1 1h138v138H1z"/><path fill="#CDCCCC" d="M138 2v136H2V2h136m2-2H0v140h140V0z"/><path fill="#2A3052" d="M10 40.5h59v59H10z"/><g fill="#F1F2F2"><path d="M32.172 84.643L18.758 71.23H10V99.5h59V71.23H45.588zM39.15 71.23H25.196l6.976 6.976zM10 40.5v28.27h7.322l2.71-2.705 2.705 2.706h18.87l12.74-12.738h-7.193l4.55-4.553H62.07v10.46l-4.55 4.554v-7.192l-9.47 9.47H69V40.5z"/></g><path fill="#2A3052" d="M67 42.5v55H12v-55h55m2-2H10v59h59v-59zM71 40.5h59v59H71z"/><g fill="#F1F2F2"><path d="M93.172 55.357L79.76 68.77H71V40.5h59v28.27h-23.412zM100.148 68.77h-13.95l6.974-6.975zM71 99.5V71.23h7.324l2.708 2.708 2.706-2.708h18.87l12.74 12.738h-7.196l4.553 4.553h10.363V78.06l-4.554-4.552v7.19l-9.467-9.468H130V99.5z"/></g><path fill="#2A3052" d="M128 42.5v55H73v-55h55m2-2H71v59h59v-59z"/></svg>