<svg xmlns="http://www.w3.org/2000/svg" xmlns:xlink="http://www.w3.org/1999/xlink" version="1.1" x="0px" y="0px" viewBox="20 20 60 60" enable-background="new 0 0 100 100" xml:space="preserve">
    <path fill="#fff" fill-rule="evenodd" clip-rule="evenodd" d="M55.621,57.449l-6.394-5.231C48.34,51.87,47.5,51.234,47.5,50.5l0.014-0.187  c-0.025-0.25,0.005-0.526,0.062-0.806L48.5,37.5c0-1.104,0.896-2,2-2s2,0.896,2,2l0.836,10.872l5.113,6.25  c0.781,0.781,0.781,2.047,0,2.828C57.669,58.23,56.402,58.23,55.621,57.449z M80.5,50.5c0,16.568-13.432,30-30,30s-30-13.432-30-30  c0-16.569,13.432-30,30-30c2.566,0,5.043,0.36,7.419,0.97c0.198,0.017,0.397,0.055,0.593,0.135c1.021,0.422,1.506,1.592,1.084,2.612  c-0.373,0.9-1.326,1.381-2.246,1.194l-0.008,0.028c-2.184-0.595-4.47-0.94-6.842-0.94c-14.359,0-26,11.641-26,26s11.641,26,26,26  s26-11.641,26-26c0-1.326-0.131-2.618-0.322-3.891l0.049-0.007c-0.045-0.157-0.076-0.319-0.08-0.49  c-0.025-1.104,0.85-2.02,1.955-2.045c1.104-0.025,2.02,0.85,2.044,1.955c0.001,0.028-0.006,0.054-0.007,0.081  C80.354,47.542,80.5,49.002,80.5,50.5z"/>
</svg>
