<svg xmlns="http://www.w3.org/2000/svg" xmlns:xlink="http://www.w3.org/1999/xlink" xmlns:sketch="http://www.bohemiancoding.com/sketch/ns" viewBox="0 0 21 21" version="1.1" x="0px" y="0px">
    <title>business_coins_money_stack_salary_outline_stroke</title>
    <description>Created with Sketch.</description>
    <defs>
        <path d="M14.2450745,3.68553013 C17.0464256,4.9302063 19,7.73696214 19,11 C19,14.2630379 17.0464256,17.0697937 14.2450745,18.3144699 C16.5189645,16.6810152 18,14.0134649 18,11 C18,7.98653511 16.5189645,5.31898482 14.2450745,3.68553013 L14.2450745,3.68553013 Z M16.2450745,3.68553013 C19.0464256,4.9302063 21,7.73696214 21,11 C21,14.2630379 19.0464256,17.0697937 16.2450745,18.3144699 C18.5189645,16.6810152 20,14.0134649 20,11 C20,7.98653511 18.5189645,5.31898482 16.2450745,3.68553013 L16.2450745,3.68553013 Z M17,11 C17,6.58172178 13.4182782,3 9,3 C4.58172178,3 1,6.58172178 1,11 C1,15.4182782 4.58172178,19 9,19 C13.4182782,19 17,15.4182782 17,11 Z M2,11 C2,7.13400653 5.13400653,4 9,4 C12.8659935,4 16,7.13400653 16,11 C16,14.8659935 12.8659935,18 9,18 C5.13400653,18 2,14.8659935 2,11 Z M9.38176353,7.5 L9.38176353,8.19083585 C9.61823766,8.23548193 9.81162249,8.3271225 9.96192385,8.46576032 C10.1122252,8.60439814 10.2555103,8.81705127 10.3917836,9.10372608 L9.80561122,9.48791541 C9.62925764,9.11194844 9.39879902,8.92396777 9.11422846,8.92396777 C8.93787487,8.92396777 8.79158375,8.98506149 8.6753507,9.10725076 C8.55911766,9.22944002 8.501002,9.38217431 8.501002,9.56545821 C8.501002,9.73229355 8.54809572,9.87092929 8.64228457,9.98136959 C8.7344694,10.0894601 8.92084028,10.2175219 9.20140281,10.3655589 C9.44388899,10.4947976 9.64428779,10.6163976 9.80260521,10.7303625 C9.96092264,10.8443275 10.0801599,10.9541787 10.1603206,11.0599194 C10.3867747,11.3465942 10.5,11.6931836 10.5,12.0996979 C10.5,12.4991628 10.3977966,12.8516265 10.1933868,13.1570997 C9.99098095,13.4602231 9.72044258,13.664652 9.38176353,13.7703927 L9.38176353,14.5 L8.85571142,14.5 L8.85571142,13.7915408 C8.46292389,13.7163474 8.16332769,13.5577387 7.95691383,13.31571 C7.75049997,13.0736812 7.59819688,12.7000697 7.5,12.194864 L8.16132265,12.0327291 C8.25150346,12.3898977 8.3617228,12.6448465 8.49198397,12.7975831 C8.62825719,12.9432703 8.80961811,13.0161128 9.03607214,13.0161128 C9.25651413,13.0161128 9.44088102,12.9326964 9.58917836,12.765861 C9.73547167,12.6013755 9.80861723,12.3887224 9.80861723,12.1278953 C9.80861723,11.8952657 9.7474956,11.7084599 9.6252505,11.5674723 C9.56312594,11.4993283 9.47144349,11.4223737 9.3502004,11.3366062 C9.22895731,11.2508388 9.07414924,11.1574359 8.88577154,11.0563948 C8.49699204,10.8519627 8.24148358,10.6639821 8.11923848,10.4924471 C7.92484873,10.2363196 7.82765531,9.92967617 7.82765531,9.57250755 C7.82765531,9.40332242 7.85070117,9.24588861 7.89679359,9.10020141 C7.942886,8.95451421 8.0095186,8.8223403 8.09669339,8.70367573 C8.18386817,8.58501116 8.29158253,8.48220923 8.41983968,8.39526687 C8.54809683,8.30832451 8.69338596,8.24018152 8.85571142,8.19083585 L8.85571142,7.5 L9.38176353,7.5 Z"
        id="a" />
    </defs>
    <g stroke="none" stroke-width="1" fill="none" fill-rule="evenodd" sketch:type="MSPage">
        <g>
            <use fill="#fff" fill-rule="evenodd" sketch:type="MSShapeGroup" xlink:href="#a" />
            <use fill="none" xlink:href="#a" />
        </g>
    </g>
</svg>
