<svg version="1" xmlns="http://www.w3.org/2000/svg" width="140" height="140" viewBox="0 0 140 140"><path fill="#F3F3F3" d="M1 1h138v138H1z"/><path fill="#CDCCCC" d="M138 2v136H2V2h136m2-2H0v140h140V0z"/><g fill="#2A3052"><path d="M10 52h35.09l-4.298 4.3h8.245L36.563 68.772l-2.46 2.458-10.257 10.254 6.846 6.847-8.11 8.112 3.06 3.058 11.165-11.17-6.844-6.846L40.22 71.23l2.46-2.458 9.414-9.416v8.5l4.325-4.323V52H69v-2.458H10zM67 42.5v55H12v-55h55m2-2H10v59h59v-59z"/></g><g fill="#2A3052"><path d="M71 90.076h59v2.458H71zM127.005 80.272V69.777h-10.733l-4.015 4.014h8.177l-7.33 7.33L88.64 56.655l-4.31 4.31-6.53-6.53-2.837 2.837 9.367 9.37 4.31-4.307L113.104 86.8l9.884-9.886v7.374zM128 42.5v55H73v-55h55m2-2H71v59h59v-59z"/></g></svg>