<svg xmlns="http://www.w3.org/2000/svg" xmlns:xlink="http://www.w3.org/1999/xlink" version="1.1" x="0px" y="0px" viewBox="5 5 40 40" enable-background="new 0 0 50 50" xml:space="preserve">
    <path
        fill="#2a3052" 
        d="M34.7,11.9c0.7,0,1.4,0,2.1,0c0,0,0.1,0,0.1,0c0.8,0.1,1.6,0.1,2.4,0.2c0.2,0,0.4,0.1,0.4,0.3c0.3,0.8,0.5,1.6,0.5,2.4   c0,1.1-0.3,2.1-0.7,3c-0.2,0.3-0.3,0.7-0.5,1c0.2,0.1,0.3,0.2,0.5,0.2c0.2,0.2,0.5,0.3,0.7,0.5c0.4,0.3,0.6,0.8,0.6,1.3   c0,1.6,0,3.3,0,4.9c0,0.2-0.1,0.4-0.1,0.6c-0.2,0.5-0.6,0.8-1,1c-6,3.5-12,7-18,10.5c-0.4,0.2-0.8,0.5-1.2,0.6   c-1.5,0.5-2.9,0.4-4.4-0.3c-2.2-1.1-4.4-2.2-6.5-3.3c-0.2-0.1-0.4-0.3-0.6-0.4c-0.4-0.4-0.7-0.8-0.7-1.4c0-0.4,0-0.9,0-1.3   c0-0.1,0-0.1,0-0.2c-0.4,0-0.7,0-1.1,0c-0.1,0-0.1,0-0.1-0.1c-0.1-0.3-0.2-0.5-0.2-0.8c-0.1-0.3-0.1-0.5-0.1-0.8c0-0.3,0-0.7,0-1   c0,0,0-0.1,0-0.1c0.1-1.1,0.4-2.1,0.8-3.1c0.7-1.5,1.7-2.8,2.9-4c1.1-1.1,2.4-2.1,3.7-3c3.4-2.3,7.1-3.9,11-5.1   c1.8-0.5,3.5-0.9,5.3-1.1c1.3-0.2,2.6-0.3,3.9-0.4C34.5,11.9,34.6,11.9,34.7,11.9z M38.9,17.6c0.1-0.2,0.2-0.4,0.2-0.5   c-0.2-0.1-0.3-0.2-0.2-0.4c0-0.2,0.2-0.3,0.4-0.3c0,0,0.1,0,0.1,0c0.1-0.2,0.1-0.5,0.2-0.7c-0.3,0.1-0.4,0.1-0.5-0.1   c-0.1-0.1-0.1-0.3,0-0.4c0.2-0.2,0.4-0.2,0.6-0.1c0-0.3,0-0.6,0-0.9c-0.2,0.1-0.4,0.1-0.5,0c-0.1-0.1-0.1-0.2-0.1-0.3   c0.1-0.1,0.1-0.2,0.2-0.3c0.1-0.1,0.2,0,0.3-0.1c0-0.1-0.1-0.2-0.1-0.3c-0.1-0.3-0.2-0.5-0.5-0.4c0,0-0.1,0-0.1,0   c-1.3-0.1-2.6-0.2-3.8-0.1c-1.5,0-3,0.2-4.5,0.4c-2.4,0.4-4.8,0.9-7.1,1.7c-0.1,0-0.1,0-0.2,0.1c0.1,0,0.1,0,0.2,0.1   c1.8,0.5,3.5,1.2,5.1,2c1.1,0.6,2.2,1.3,3.1,2.2c0.6,0.6,1.1,1.3,1.3,2.2c0,0,0.1,0.1,0.1,0.1c0.2,0.1,0.2,0.4,0.1,0.5   C33,22.1,33,22.2,33,22.3c0,0.1,0,0.3,0,0.4c0,0.1,0,0.1,0.1,0.2c0.1,0.1,0.1,0.3,0,0.4c-0.2,0.2-0.1,0.4-0.1,0.6   c0.1,0,0.1-0.1,0.1-0.1c0.1-0.2,0.2-0.2,0.4-0.3c0.1,0,0.2-0.1,0.3-0.2c0,0,0-0.1,0-0.2c0-0.2,0.2-0.4,0.4-0.3   c0.2,0.1,0.3,0,0.4-0.1c-0.1-0.2-0.1-0.4,0.1-0.5c0.2-0.1,0.4-0.1,0.5,0c0,0,0.1-0.1,0.1-0.1c0,0,0.1,0,0.1-0.1   c-0.2-0.3-0.2-0.4,0-0.6c0.1-0.2,0.3-0.1,0.6,0c0.1-0.1,0.1-0.1,0.2-0.2c-0.2-0.2-0.2-0.4,0-0.6c0.2-0.2,0.3-0.1,0.6,0   c0.1-0.1,0.1-0.1,0.2-0.2c-0.2-0.2-0.2-0.4-0.1-0.5c0.2-0.2,0.4-0.2,0.5-0.1c0.1-0.2,0.1-0.2,0.1-0.4c0-0.2,0.1-0.4,0.3-0.4   c0.1,0,0.2,0,0.3-0.1c0-0.1,0.1-0.2,0.1-0.3c0-0.1,0.1-0.2,0.2-0.3c0,0,0.1,0,0.1-0.1C38.6,18.2,38.7,17.9,38.9,17.6L38.9,17.6z    M28,23.7C28,23.7,28,23.6,28,23.7c-0.3-0.7-0.6-1.2-1.1-1.6c-0.7-0.7-1.6-1.3-2.5-1.9c-2.2-1.3-4.6-2.2-7-2.9c-0.1,0-0.1,0-0.2,0   c-0.2,0.1-0.5,0.3-0.7,0.4c-2.2,1.2-4.2,2.6-5.9,4.4c-1,1-1.9,2.2-2.5,3.5c-0.6,1.2-0.9,2.5-0.8,3.8c0,0.4,0.1,0.8,0.1,1.2   c0.2,0,0.3,0.1,0.4,0.1c0.6,0,1.2,0,1.8,0c0.2,0,0.4,0,0.6,0c0.1,0,0.2,0,0.3,0c0.2,0,0.4,0,0.6,0c-0.3-0.2-0.3-0.4-0.2-0.6   c0.1-0.2,0.4-0.2,0.5,0c0.2,0.2,0.1,0.4-0.1,0.6c0.4,0,0.7,0,1-0.1c-0.2-0.2-0.2-0.4,0-0.6c0.1-0.1,0.3-0.1,0.5-0.1   c0.2,0.1,0.2,0.3,0.1,0.6c0.3,0,0.5,0,0.8-0.1c0-0.4,0.1-0.5,0.3-0.6c0.2,0,0.4,0.2,0.4,0.5c0.2,0,0.5-0.1,0.7-0.1   c0.1-0.3,0.2-0.4,0.4-0.4c0.2,0,0.3,0.1,0.4,0.3c0.2,0,0.4-0.1,0.6-0.1c0.1,0,0.1,0,0.2-0.1c0.1-0.1,0.3-0.2,0.4-0.1   c0.2,0.1,0.3,0,0.5,0c-0.2-0.1-0.3-0.2-0.3-0.4c0-0.2,0.1-0.3,0.3-0.3c0.1,0,0.3,0,0.4,0.2c0,0.1,0,0.2,0,0.3   c0,0.1-0.1,0.2-0.2,0.2c0.3-0.1,0.6-0.1,0.9-0.2c0-0.3,0-0.5,0.3-0.5c0.1,0,0.2,0,0.3,0c0.1,0.1,0.2,0.2,0.3,0.3   c0.2,0,0.4-0.1,0.6-0.1c0,0,0.1-0.1,0.1-0.1c0.1-0.1,0.3-0.2,0.4-0.1c0.2,0.1,0.3,0,0.5,0c-0.2-0.2-0.3-0.4-0.2-0.6   c0.1-0.1,0.3-0.2,0.5-0.1c0.2,0.1,0.2,0.3,0.1,0.6c0.2-0.1,0.5-0.1,0.7-0.2c0,0,0.1-0.1,0.1-0.1c0-0.2,0.1-0.3,0.3-0.3   c0.1,0,0.3,0,0.4,0.1c0,0,0.1,0.1,0.1,0c0.4-0.1,0.8-0.3,1.3-0.4c0,0,0.1-0.1,0.1-0.1c0-0.2,0.1-0.3,0.2-0.3c0.2-0.1,0.3,0,0.4,0.1   c0,0,0.1,0,0.1,0c0.1,0,0.2-0.1,0.3-0.1c-0.3-0.2-0.4-0.3-0.3-0.6c0.1-0.2,0.3-0.3,0.5-0.2c0.2,0.1,0.2,0.3,0.1,0.6   c0.3-0.1,0.5-0.2,0.7-0.3c0.1,0,0.1-0.1,0.1-0.1c0.1-0.2,0.3-0.3,0.4-0.2c0.2,0.1,0.3,0,0.4-0.1c-0.1-0.1-0.2-0.3-0.1-0.5   c0.1-0.1,0.2-0.2,0.3-0.2c0.2,0,0.3,0.2,0.4,0.4c0,0,0.1,0,0.1-0.1c0-0.2,0-0.3,0-0.5c0-0.1-0.1-0.2,0-0.3c0.1-0.1,0.1-0.2,0.1-0.4   c0-0.2,0-0.3,0-0.5c0-0.1,0-0.2-0.1-0.2c-0.1-0.1-0.1-0.2,0-0.3c0.1-0.2,0-0.3,0-0.5c-0.1,0.2-0.2,0.3-0.4,0.3   c-0.2,0-0.3-0.1-0.3-0.2C27.6,23.9,27.8,23.8,28,23.7z M21.3,30c-4.1,1-8.2,1.5-12.4,1.5c0,0.5,0,1,0,1.6c0,0.3,0.1,0.6,0.3,0.8   c0.2,0.2,0.4,0.3,0.6,0.4c0.9,0.5,1.8,0.9,2.8,1.4c1.3,0.6,2.6,1.3,3.8,2c0.8,0.4,1.6,0.6,2.5,0.5c0.7,0,1.3-0.2,1.9-0.5   c0.7-0.4,1.4-0.8,2.2-1.2c0,0,0.1-0.1,0.1-0.1c0.1-0.1,0.2-0.1,0.3-0.2c0.2-0.1,0.4-0.2,0.6-0.3c0,0,0-0.1,0-0.1   c0-0.2,0.2-0.4,0.5-0.3c0,0,0.1,0,0.1,0c0.1-0.1,0.2-0.1,0.4-0.2c-0.1-0.2,0-0.4,0.1-0.5c0.1-0.1,0.3-0.1,0.5,0.1   c0.1,0,0.1-0.1,0.2-0.1c0.1,0,0.1-0.1,0.2-0.1c-0.2-0.2-0.1-0.4,0-0.6c0.2-0.1,0.4-0.1,0.6,0.2c0.1-0.1,0.3-0.2,0.4-0.2   c-0.2-0.1-0.2-0.3-0.2-0.4c0-0.1,0.2-0.2,0.3-0.2c0.1,0,0.1,0,0.2,0.1c0.1,0.1,0.1,0.2,0.2,0.3c0.2-0.1,0.4-0.2,0.6-0.4   c-0.3,0-0.4-0.1-0.4-0.3c0-0.2,0.2-0.3,0.3-0.3c0.1,0,0.2,0.1,0.2,0.1c0,0.1,0,0.2,0.1,0.4c0.1,0,0.1-0.1,0.1-0.2   c0-1.8,0-3.6,0-5.5c0,0,0-0.1,0-0.1c0,0,0,0,0,0c-0.9,0.4-1.8,0.7-2.7,1.1c0,0-0.1,0.1-0.1,0.1c0,0.1-0.1,0.2-0.2,0.3   c-0.1,0-0.2,0-0.3-0.1c0,0-0.1,0-0.1,0c-0.1,0-0.3,0.1-0.4,0.2c0.2,0.2,0.2,0.3,0.1,0.5c-0.1,0.1-0.2,0.2-0.4,0.1   c-0.1,0-0.1-0.1-0.1-0.1c0-0.1,0-0.2-0.1-0.3c-0.7,0.2-1.5,0.4-2.2,0.6c0,0.2,0,0.3-0.2,0.4C21.4,30.3,21.3,30.2,21.3,30z    M36.6,21.9c-0.2,0.2-0.4,0.4-0.6,0.6c0,0-0.1,0-0.1,0.1c-0.1,0-0.1,0.1-0.2,0.1c-0.8,0.7-1.7,1.4-2.6,2C33,24.8,33,24.9,33,25   c0,1.8,0,3.6,0,5.5c0,0,0,0.1,0,0.1c0,0,0,0,0.1,0c0.6-0.3,1.1-0.7,1.7-1c0,0,0.1-0.1,0.1-0.1c0-0.1,0.1-0.2,0.2-0.1   c0,0,0.1,0,0.1,0c0.2-0.1,0.4-0.2,0.6-0.4c-0.1-0.1-0.1-0.2,0-0.3c0.1-0.1,0.2,0,0.3,0.1c0.2-0.1,0.5-0.3,0.7-0.4   c-0.1-0.1-0.2-0.1-0.2-0.3c0-0.1,0.1-0.1,0.2-0.1c0.2,0,0.2,0.1,0.2,0.3c0.2-0.1,0.4-0.2,0.6-0.4c0.6-0.4,1.3-0.7,1.9-1.1   c0.3-0.2,0.5-0.4,0.6-0.7c0-0.1,0.1-0.2,0-0.3c0-0.1-0.1-0.2,0-0.2c0.1-0.2,0.1-0.3,0.1-0.5c0-0.2,0-0.4-0.1-0.6c0,0,0-0.1,0-0.2   c0.1-0.2,0.1-0.3,0.1-0.5c0-0.2,0-0.4-0.1-0.6c0,0,0-0.1,0-0.2c0.1-0.2,0.1-0.4,0.1-0.6c0-0.2,0-0.4-0.1-0.6c0,0,0-0.1,0-0.2   c0-0.1,0.1-0.2,0.1-0.3c0-0.3,0-0.5-0.1-0.8c-0.1-0.2-0.2-0.4-0.4-0.6c-0.2,0.2-0.3,0.2-0.4,0.1c-0.1-0.1-0.1-0.2-0.1-0.4   c-0.2-0.1-0.4-0.2-0.5-0.3c-0.6,0.7-1.2,1.5-1.8,2.2c0.1,0.1,0.1,0.2,0,0.3C36.8,22,36.7,22,36.6,21.9z"/><path d="M27.4,24.6c0,0.2-0.2,0.4-0.4,0.4c-0.2,0-0.4-0.2-0.4-0.4c0-0.2,0.2-0.4,0.4-0.4C27.2,24.3,27.4,24.4,27.4,24.6z"/><path d="M24.5,27.5c0,0.2-0.2,0.4-0.4,0.4c-0.2,0-0.4-0.2-0.4-0.4c0-0.2,0.2-0.4,0.4-0.4C24.3,27.2,24.5,27.3,24.5,27.5z"/><path d="M20.5,28.6c-0.2,0-0.4-0.2-0.4-0.4c0-0.2,0.2-0.4,0.4-0.4c0.2,0,0.4,0.2,0.4,0.4C20.9,28.4,20.7,28.6,20.5,28.6z"/><path d="M23.4,28.6c-0.2,0-0.4-0.2-0.4-0.4c0-0.2,0.2-0.4,0.4-0.4c0.2,0,0.4,0.2,0.4,0.4C23.8,28.4,23.6,28.6,23.4,28.6z"/><path d="M15.5,29.3c-0.2,0-0.4-0.2-0.4-0.4c0-0.2,0.2-0.4,0.4-0.4c0.2,0,0.4,0.2,0.4,0.4C15.8,29.2,15.7,29.3,15.5,29.3z"/><path d="M17.3,29c0,0.2-0.2,0.4-0.4,0.4c-0.2,0-0.4-0.2-0.4-0.4c0-0.2,0.2-0.4,0.4-0.4C17.1,28.6,17.3,28.8,17.3,29z"/><path d="M22.7,27.9c-0.2,0-0.4-0.2-0.4-0.4c0-0.2,0.2-0.4,0.4-0.4c0.2,0,0.4,0.2,0.3,0.4C23,27.7,22.9,27.9,22.7,27.9z"/><path d="M21.6,27.5c0,0.2-0.2,0.4-0.4,0.4c-0.2,0-0.4-0.2-0.4-0.4c0-0.2,0.2-0.4,0.4-0.4C21.4,27.1,21.6,27.3,21.6,27.5z"/><path d="M26.6,26.8c0,0.2-0.2,0.4-0.4,0.4c-0.2,0-0.4-0.2-0.4-0.4c0-0.2,0.2-0.4,0.4-0.4C26.5,26.4,26.6,26.6,26.6,26.8z"/><path d="M26.6,25.4c0,0.2-0.2,0.4-0.4,0.4c-0.2,0-0.4-0.2-0.4-0.4c0-0.2,0.2-0.4,0.4-0.4C26.5,25,26.6,25.2,26.6,25.4z"/><path d="M23.8,26.8c0,0.2-0.2,0.4-0.4,0.4c-0.2,0-0.4-0.2-0.4-0.4c0-0.2,0.2-0.4,0.4-0.4C23.6,26.4,23.8,26.6,23.8,26.8z"/><path d="M27,26.4c-0.2,0-0.4-0.2-0.4-0.4c0-0.2,0.2-0.4,0.4-0.4c0.2,0,0.4,0.2,0.4,0.4C27.4,26.3,27.2,26.4,27,26.4z"/><path d="M25.6,26.4c-0.2,0-0.4-0.2-0.4-0.4c0-0.2,0.2-0.4,0.4-0.4c0.2,0,0.4,0.2,0.4,0.4C25.9,26.3,25.8,26.4,25.6,26.4z"/><path d="M24.5,26.1c0,0.2-0.2,0.4-0.4,0.4c-0.2,0-0.4-0.2-0.4-0.4c0-0.2,0.2-0.4,0.4-0.4C24.3,25.7,24.5,25.9,24.5,26.1z"/><path d="M10.1,30.4c0,0.2-0.2,0.4-0.4,0.4c-0.2,0-0.4-0.2-0.4-0.4c0-0.2,0.2-0.4,0.4-0.4C9.9,30,10.1,30.2,10.1,30.4z"/><path d="M15.1,29.7c0,0.2-0.2,0.4-0.4,0.4c-0.2,0-0.4-0.2-0.4-0.4c0-0.2,0.2-0.4,0.4-0.4C15,29.3,15.1,29.5,15.1,29.7z"/><path d="M19.8,29.3c-0.2,0-0.4-0.2-0.4-0.4c0-0.2,0.2-0.4,0.4-0.4c0.2,0,0.4,0.2,0.4,0.4C20.2,29.2,20,29.3,19.8,29.3z"/><path d="M18.4,29.3c-0.2,0-0.4-0.2-0.4-0.4c0-0.2,0.2-0.4,0.4-0.4c0.2,0,0.4,0.2,0.4,0.4C18.7,29.2,18.6,29.3,18.4,29.3z"/><path d="M13.7,29.7c0,0.2-0.2,0.4-0.4,0.4c-0.2,0-0.4-0.2-0.4-0.4c0-0.2,0.2-0.4,0.4-0.4C13.5,29.3,13.7,29.5,13.7,29.7z"/><path d="M16.6,29.7c0,0.2-0.2,0.4-0.4,0.4c-0.2,0-0.4-0.2-0.4-0.4c0-0.2,0.2-0.4,0.4-0.4C16.4,29.3,16.6,29.5,16.6,29.7z"/><path d="M19.4,28.2c0,0.2-0.2,0.4-0.4,0.4c-0.2,0-0.4-0.2-0.4-0.4c0-0.2,0.2-0.4,0.4-0.4C19.3,27.9,19.4,28,19.4,28.2z"/><path d="M25.2,26.8c0,0.2-0.2,0.4-0.4,0.4c-0.2,0-0.4-0.2-0.4-0.4c0-0.2,0.2-0.4,0.4-0.4C25,26.4,25.2,26.6,25.2,26.8z"/><path d="M28.1,25.4c0,0.2-0.2,0.4-0.4,0.4c-0.2,0-0.4-0.2-0.4-0.4c0-0.2,0.2-0.4,0.4-0.4C27.9,25,28.1,25.2,28.1,25.4z"/><path d="M22.3,28.2c0,0.2-0.2,0.4-0.4,0.4c-0.2,0-0.4-0.2-0.4-0.4c0-0.2,0.2-0.4,0.4-0.4C22.2,27.9,22.3,28,22.3,28.2z"/><path d="M22.3,26.8c0,0.2-0.2,0.4-0.4,0.4c-0.2,0-0.4-0.2-0.4-0.4c0-0.2,0.2-0.4,0.4-0.4C22.2,26.4,22.3,26.6,22.3,26.8z"/><path d="M18,28.2c0,0.2-0.2,0.4-0.4,0.4c-0.2,0-0.4-0.2-0.4-0.4c0-0.2,0.2-0.4,0.4-0.4C17.9,27.9,18,28,18,28.2z"/><path d="M20.2,27.5c0,0.2-0.2,0.4-0.4,0.4c-0.2,0-0.4-0.2-0.4-0.4c0-0.2,0.2-0.3,0.4-0.3C20,27.2,20.2,27.3,20.2,27.5z"/><path d="M12.2,29.7c0,0.1-0.1,0.2-0.2,0.3c-0.1,0.1-0.3,0-0.4-0.1c-0.1-0.1-0.1-0.2-0.1-0.4c0,0,0-0.1,0.1-0.1   c0.1,0,0.3-0.1,0.4-0.1C12.1,29.4,12.2,29.5,12.2,29.7z"/><path d="M8.6,30.4c0,0.1-0.1,0.2-0.2,0.3c-0.1,0.1-0.3,0-0.4-0.1c-0.1-0.1-0.1-0.2-0.1-0.4c0,0,0.1-0.1,0.1-0.1   c0.1,0,0.3-0.1,0.4-0.1C8.6,30.1,8.6,30.2,8.6,30.4z"/><path d="M25.1,25.1c0.1,0.2,0.1,0.4-0.1,0.5c-0.2,0.1-0.4,0.1-0.5-0.1c0-0.1-0.1-0.1,0.1-0.2C24.8,25.3,24.9,25.2,25.1,25.1z"/><path d="M14.4,28.8c0.1,0.2,0,0.4-0.2,0.5c-0.2,0.1-0.4-0.1-0.5-0.3C13.9,28.9,14.1,28.9,14.4,28.8z"/><path d="M10.8,29.7c0,0.2-0.1,0.3-0.3,0.4c-0.2,0-0.3,0-0.4-0.2c0.1,0,0.2-0.1,0.3-0.1C10.6,29.7,10.7,29.7,10.8,29.7z"/><path d="M22.4,26.3c0.2-0.1,0.4-0.2,0.6-0.3c0,0.2,0,0.3-0.2,0.4C22.7,26.5,22.5,26.4,22.4,26.3z"/><path d="M15.9,28.4c0.2-0.1,0.4-0.1,0.7-0.2c0,0.2-0.1,0.3-0.2,0.4C16.2,28.6,16,28.6,15.9,28.4z"/><path d="M20.2,27c0.2-0.1,0.4-0.1,0.6-0.2c0,0.2-0.1,0.3-0.2,0.3C20.5,27.2,20.4,27.2,20.2,27z"/><path d="M18.7,27.5c0,0.2-0.1,0.3-0.2,0.3c-0.2,0.1-0.3,0-0.4-0.1C18.3,27.7,18.5,27.6,18.7,27.5z"/><path d="M25.4,25c0.2-0.1,0.3-0.1,0.4-0.2C25.8,25,25.7,25,25.4,25z"/><path d="M12.9,29.2c-0.1,0.2-0.3,0.2-0.4,0.1C12.6,29.2,12.7,29.2,12.9,29.2z"/><path d="M25.6,31.9c0-0.2,0.1-0.3,0.3-0.3c0.2,0,0.4,0.2,0.4,0.4c0,0.2-0.2,0.3-0.4,0.3C25.8,32.3,25.6,32.1,25.6,31.9z"/><path d="M25.6,30.7c0-0.2,0.2-0.3,0.3-0.3c0.2,0,0.3,0.2,0.3,0.3c0,0.2-0.2,0.3-0.3,0.3C25.8,31,25.6,30.9,25.6,30.7z"/><path d="M25.6,29.4c0-0.2,0.2-0.3,0.3-0.3c0.2,0,0.3,0.2,0.3,0.3c0,0.2-0.2,0.3-0.3,0.3C25.8,29.8,25.6,29.6,25.6,29.4z"/><path d="M25.6,33.2c0-0.2,0.1-0.3,0.3-0.3c0.2,0,0.3,0.2,0.3,0.3c0,0.2-0.2,0.3-0.3,0.4C25.8,33.6,25.6,33.4,25.6,33.2z"/><path d="M25.4,31.3c0,0.2-0.1,0.3-0.3,0.3c-0.2,0-0.3-0.2-0.3-0.3c0-0.2,0.2-0.3,0.3-0.3C25.3,31,25.4,31.1,25.4,31.3z"/><path d="M26.6,32.6c0-0.2,0.1-0.3,0.3-0.3c0.2,0,0.3,0.1,0.3,0.3c0,0.2-0.1,0.3-0.3,0.3C26.7,32.9,26.6,32.8,26.6,32.6z"/><path d="M26.6,31.3c0-0.2,0.1-0.3,0.3-0.3c0.2,0,0.3,0.2,0.3,0.3c0,0.2-0.1,0.3-0.3,0.3C26.7,31.6,26.5,31.5,26.6,31.3z"/><path d="M25.4,32.6c0,0.2-0.1,0.3-0.3,0.3c-0.2,0-0.3-0.1-0.3-0.3c0-0.2,0.1-0.3,0.3-0.3C25.3,32.3,25.4,32.4,25.4,32.6z"/><path d="M26.9,29.1c-0.2,0-0.3-0.1-0.3-0.3c0-0.2,0.1-0.3,0.3-0.3c0.2,0,0.3,0.1,0.3,0.3C27.2,28.9,27.1,29.1,26.9,29.1z"/><path d="M25.1,33.5c0.2,0,0.3,0.1,0.3,0.3c0,0.2-0.1,0.3-0.3,0.3c-0.2,0-0.3-0.1-0.3-0.3C24.7,33.7,24.9,33.5,25.1,33.5z"/><path d="M25.4,30c0,0.2-0.1,0.3-0.3,0.3c-0.2,0-0.3-0.1-0.3-0.3c0-0.2,0.1-0.3,0.3-0.3C25.2,29.7,25.4,29.9,25.4,30z"/><path d="M26.9,30.4c-0.2,0-0.3-0.1-0.3-0.3c0-0.2,0.1-0.3,0.3-0.3c0.2,0,0.3,0.1,0.3,0.3C27.2,30.2,27,30.4,26.9,30.4z"/><path d="M27.8,31c-0.2,0-0.3-0.1-0.3-0.3c0-0.2,0.1-0.3,0.3-0.3c0.2,0,0.3,0.1,0.3,0.3C28.1,30.8,27.9,31,27.8,31z"/><path d="M24.2,33.5c-0.2,0-0.3-0.1-0.3-0.3c0-0.2,0.1-0.3,0.3-0.3c0.2,0,0.3,0.1,0.3,0.3C24.5,33.4,24.3,33.5,24.2,33.5z"/><path d="M28.1,31.9c0,0.2-0.1,0.3-0.3,0.3c-0.2,0-0.3-0.1-0.3-0.3c0-0.2,0.1-0.3,0.3-0.3C27.9,31.7,28.1,31.8,28.1,31.9z"/><path d="M27.8,28.4c-0.2,0-0.3-0.1-0.3-0.3c0-0.2,0.1-0.3,0.3-0.3c0.2,0,0.3,0.1,0.3,0.3C28.1,28.3,27.9,28.4,27.8,28.4z"/><path d="M24.2,31c-0.2,0-0.3-0.1-0.3-0.3c0-0.2,0.1-0.3,0.3-0.3c0.2,0,0.3,0.1,0.3,0.3C24.5,30.8,24.3,31,24.2,31z"/><path d="M27.8,29.7c-0.2,0-0.3-0.1-0.3-0.3c0-0.2,0.1-0.3,0.3-0.3c0.2,0,0.3,0.1,0.3,0.3C28.1,29.6,27.9,29.7,27.8,29.7z"/><path d="M24.5,31.9c0,0.2-0.1,0.3-0.3,0.3c-0.2,0-0.3-0.1-0.3-0.3c0-0.2,0.1-0.3,0.3-0.3C24.3,31.7,24.5,31.8,24.5,31.9z"/><path d="M24.2,34.8c-0.2,0-0.3-0.1-0.3-0.3c0-0.2,0.1-0.3,0.3-0.3c0.2,0,0.3,0.1,0.3,0.3C24.5,34.6,24.3,34.8,24.2,34.8z"/><path d="M23.3,32.8c-0.2,0-0.3-0.1-0.3-0.3c0-0.1,0.1-0.3,0.3-0.3c0.2,0,0.3,0.1,0.3,0.3C23.5,32.7,23.4,32.8,23.3,32.8z"/><path d="M23.5,30c0,0.2-0.1,0.3-0.3,0.3c-0.1,0-0.3-0.1-0.3-0.3c0-0.2,0.1-0.3,0.3-0.3C23.4,29.8,23.5,29.9,23.5,30z"/><path d="M23.5,35.1c0,0.1-0.1,0.3-0.3,0.3c-0.1,0-0.3-0.1-0.3-0.3c0-0.2,0.1-0.3,0.3-0.3C23.4,34.8,23.5,35,23.5,35.1z"/><path d="M23.5,31.3c0,0.1-0.1,0.3-0.3,0.3c-0.2,0-0.3-0.1-0.3-0.3c0-0.2,0.1-0.3,0.3-0.3C23.4,31,23.5,31.2,23.5,31.3z"/><path d="M23.5,33.9c0,0.1-0.1,0.3-0.3,0.3c-0.2,0-0.3-0.1-0.3-0.3c0-0.1,0.1-0.3,0.3-0.3C23.4,33.6,23.5,33.7,23.5,33.9z"/><circle cx="22.4" cy="30.7" r="0.2"/><circle cx="22.4" cy="35.7" r="0.2"/><circle cx="22.4" cy="33.2" r="0.2"/><path d="M22.4,34.2c0.1,0,0.2,0.1,0.3,0.2c0,0.1-0.1,0.3-0.2,0.3c-0.1,0-0.2-0.1-0.3-0.2C22.1,34.3,22.2,34.2,22.4,34.2z"/><path d="M22.6,31.9c0,0.1-0.1,0.2-0.2,0.2c-0.1,0-0.2-0.1-0.2-0.2c0-0.1,0.1-0.2,0.2-0.2C22.5,31.7,22.6,31.8,22.6,31.9z"/><path d="M21.3,31.3c0-0.1,0-0.2,0.2-0.2c0.1,0,0.2,0.1,0.2,0.2c0,0.1-0.1,0.2-0.2,0.2C21.3,31.5,21.3,31.4,21.3,31.3z"/><path d="M21.3,35.1c0-0.1,0-0.2,0.2-0.2c0.1,0,0.2,0.1,0.2,0.2c0,0.1-0.1,0.2-0.2,0.2C21.3,35.3,21.3,35.3,21.3,35.1z"/><path d="M21.3,33.8c0-0.1,0-0.2,0.2-0.2c0.1,0,0.2,0.1,0.2,0.2c0,0.1-0.1,0.2-0.2,0.2C21.3,34.1,21.3,34,21.3,33.8z"/><path d="M21.3,32.6c0-0.1,0-0.2,0.2-0.2c0.1,0,0.2,0.1,0.2,0.2c0,0.1-0.1,0.2-0.2,0.2C21.3,32.8,21.3,32.8,21.3,32.6z"/><path d="M21.3,36.4c0-0.1,0-0.2,0.2-0.2c0.1,0,0.2,0.1,0.2,0.2c0,0.1-0.1,0.2-0.2,0.2C21.3,36.6,21.3,36.5,21.3,36.4z"/><path d="M38.9,16c0,0.2-0.2,0.4-0.4,0.4c-0.2,0-0.4-0.2-0.4-0.4c0-0.2,0.2-0.4,0.4-0.4C38.7,15.6,38.9,15.8,38.9,16z"/><path d="M38.2,16.7c0,0.2-0.2,0.4-0.4,0.4c-0.2,0-0.4-0.2-0.4-0.4c0-0.2,0.2-0.4,0.4-0.4C38,16.4,38.2,16.5,38.2,16.7z"/><path d="M37.4,17.4c0,0.2-0.2,0.4-0.4,0.4c-0.2,0-0.4-0.2-0.4-0.4c0-0.2,0.2-0.4,0.4-0.4C37.3,17.1,37.4,17.2,37.4,17.4z"/><path d="M38.9,17.6C38.8,17.6,38.8,17.6,38.9,17.6c-0.2,0.2-0.4,0.2-0.5,0.1c-0.1-0.1-0.2-0.3-0.1-0.5c0.1-0.2,0.3-0.2,0.4-0.2   c0.2,0,0.3,0.2,0.3,0.4C38.9,17.5,38.9,17.6,38.9,17.6C38.9,17.6,38.9,17.6,38.9,17.6z"/><path d="M38.2,18.2c0,0.2-0.2,0.4-0.4,0.4c-0.2,0-0.4-0.2-0.4-0.4c0-0.2,0.2-0.4,0.4-0.4C38,17.8,38.2,18,38.2,18.2z"/><path d="M35.6,20.7c-0.2,0-0.4-0.2-0.4-0.4c0-0.2,0.2-0.4,0.4-0.4c0.2,0,0.4,0.2,0.4,0.4C36,20.5,35.8,20.7,35.6,20.7z"/><path d="M36.4,18.5c-0.2,0-0.4-0.2-0.4-0.4c0-0.2,0.2-0.4,0.4-0.4c0.2,0,0.4,0.2,0.4,0.4C36.7,18.4,36.6,18.5,36.4,18.5z"/><path d="M36,18.9c0,0.2-0.2,0.4-0.4,0.4c-0.2,0-0.4-0.2-0.4-0.4c0-0.2,0.2-0.4,0.4-0.4C35.9,18.5,36,18.7,36,18.9z"/><path d="M37.1,19.2c-0.2,0-0.4-0.2-0.4-0.4c0-0.2,0.2-0.4,0.4-0.4c0.2,0,0.4,0.2,0.4,0.4C37.4,19.1,37.3,19.2,37.1,19.2z"/><path d="M35.3,19.6c0,0.2-0.2,0.4-0.4,0.4c-0.2,0-0.4-0.2-0.4-0.4c0-0.2,0.2-0.4,0.4-0.4C35.1,19.2,35.3,19.4,35.3,19.6z"/><path d="M34.6,20.3c0,0.2-0.2,0.4-0.4,0.4c-0.2,0-0.4-0.2-0.4-0.4c0-0.2,0.2-0.4,0.4-0.4C34.4,20,34.6,20.1,34.6,20.3z"/><path d="M35.3,21c0,0.2-0.2,0.4-0.4,0.4c-0.2,0-0.4-0.2-0.4-0.4c0-0.2,0.2-0.4,0.4-0.4C35.1,20.7,35.3,20.8,35.3,21z"/><path d="M34.2,22.1c-0.2,0-0.4-0.2-0.4-0.4c0-0.2,0.2-0.4,0.4-0.4c0.2,0,0.4,0.2,0.4,0.4C34.6,22,34.4,22.1,34.2,22.1z"/><path d="M33.8,21c0,0.2-0.2,0.4-0.4,0.4c-0.2,0-0.4-0.2-0.4-0.4c0-0.2,0.2-0.4,0.4-0.4C33.7,20.7,33.8,20.8,33.8,21z"/><path d="M36.4,20c-0.2,0-0.4-0.2-0.4-0.4c0-0.2,0.2-0.4,0.4-0.4c0.2,0,0.4,0.2,0.4,0.4C36.7,19.8,36.6,20,36.4,20z"/><path d="M33.8,22.5c0,0.2-0.2,0.4-0.4,0.4c-0.2,0-0.4-0.2-0.4-0.4c0-0.2,0.2-0.4,0.4-0.4C33.7,22.1,33.8,22.3,33.8,22.5z"/><path d="M38.3,14.9c0.1-0.2,0.2-0.4,0.3-0.6c0.2,0.1,0.3,0.3,0.2,0.5C38.7,14.9,38.5,15,38.3,14.9z"/><path d="M38.1,15.2c0.1,0.2,0,0.4-0.3,0.4C37.9,15.5,38,15.3,38.1,15.2z"/><path d="M39.5,20.9c0.2,0,0.3,0.1,0.3,0.3c0,0.1-0.1,0.3-0.3,0.3c-0.1,0-0.3-0.1-0.3-0.3C39.2,21,39.3,20.9,39.5,20.9z"/><path d="M39.2,26.2c0-0.2,0.1-0.3,0.3-0.3c0.1,0,0.3,0.1,0.3,0.3c0,0.1-0.1,0.3-0.3,0.3C39.3,26.5,39.2,26.4,39.2,26.2z"/><path d="M39.2,22.4c0-0.2,0.1-0.3,0.3-0.3c0.1,0,0.3,0.1,0.3,0.3c0,0.1-0.1,0.3-0.3,0.3C39.3,22.7,39.2,22.6,39.2,22.4z"/><path d="M39.2,25c0-0.2,0.1-0.3,0.3-0.3c0.1,0,0.3,0.1,0.3,0.3c0,0.1-0.1,0.3-0.3,0.3C39.3,25.2,39.2,25.1,39.2,25z"/><path d="M39.2,23.7c0-0.2,0.1-0.3,0.3-0.3c0.1,0,0.3,0.1,0.3,0.3c0,0.2-0.1,0.3-0.3,0.3C39.3,24,39.2,23.9,39.2,23.7z"/><circle cx="38.6" cy="20.5" r="0.2"/><circle cx="38.6" cy="23.1" r="0.2"/><circle cx="38.6" cy="25.6" r="0.2"/><path d="M38.6,24.6c-0.1,0-0.2-0.1-0.2-0.3c0-0.1,0.1-0.2,0.3-0.2c0.1,0,0.2,0.1,0.2,0.3C38.8,24.5,38.7,24.6,38.6,24.6z"/><path d="M38.6,22c-0.1,0-0.2-0.1-0.2-0.3c0-0.1,0.1-0.2,0.3-0.2c0.1,0,0.2,0.1,0.2,0.2C38.8,21.9,38.7,22.1,38.6,22z"/><path d="M38.8,26.9c0,0.1-0.1,0.2-0.2,0.2c-0.1,0-0.2-0.1-0.2-0.2c0-0.1,0.1-0.2,0.2-0.2C38.7,26.6,38.8,26.7,38.8,26.9z"/><path d="M37.7,24.7c0.1,0,0.2,0.1,0.2,0.2c0,0.1-0.1,0.2-0.2,0.2c-0.1,0-0.2-0.1-0.2-0.2C37.4,24.9,37.5,24.8,37.7,24.7z"/><path d="M37.7,23.5c0.1,0,0.2,0.1,0.2,0.2c0,0.1-0.1,0.2-0.2,0.2c-0.1,0-0.2-0.1-0.2-0.2C37.4,23.6,37.5,23.5,37.7,23.5z"/><path d="M37.9,26.2c0,0.1-0.1,0.2-0.2,0.2c-0.1,0-0.2-0.1-0.2-0.2c0-0.1,0.1-0.2,0.2-0.2C37.8,26,37.9,26.1,37.9,26.2z"/><path d="M37.9,21.2c0,0.1-0.1,0.2-0.2,0.2c-0.1,0-0.2-0.1-0.2-0.2c0-0.1,0.1-0.2,0.2-0.2C37.8,20.9,37.9,21,37.9,21.2z"/><path d="M37.7,27.3c0.1,0,0.2,0.1,0.2,0.2c0,0.1-0.1,0.2-0.2,0.2c-0.1,0-0.2-0.1-0.2-0.2C37.4,27.4,37.5,27.3,37.7,27.3z"/><path d="M37.9,22.4c0,0.1-0.1,0.2-0.2,0.2c-0.1,0-0.2-0.1-0.2-0.2c0-0.1,0.1-0.2,0.2-0.2C37.8,22.2,37.9,22.3,37.9,22.4z"/><path d="M37,26.9c0,0.1-0.1,0.2-0.2,0.2c-0.1,0-0.2-0.1-0.2-0.2c0-0.1,0.1-0.2,0.2-0.2C36.9,26.7,37,26.8,37,26.9z"/><path d="M36.8,24.5c-0.1,0-0.2-0.1-0.2-0.2c0-0.1,0.1-0.2,0.2-0.2c0.1,0,0.2,0.1,0.2,0.2C37,24.4,36.9,24.5,36.8,24.5z"/><path d="M37,25.6c0,0.1-0.1,0.2-0.2,0.2c-0.1,0-0.2-0.1-0.2-0.2c0-0.1,0.1-0.2,0.2-0.2C36.9,25.4,37,25.5,37,25.6z"/><path d="M36.8,22.9c0.1,0,0.2,0.1,0.2,0.2c0,0.1-0.1,0.2-0.2,0.2c-0.1,0-0.2-0.1-0.2-0.2C36.6,23,36.6,22.9,36.8,22.9z"/><path d="M35.9,27.3c0,0.1,0.1,0.1,0.1,0.2c0,0.1-0.1,0.2-0.2,0.2c-0.1,0-0.2-0.1-0.2-0.2C35.7,27.4,35.8,27.4,35.9,27.3   C35.8,27.3,35.9,27.3,35.9,27.3z"/><path d="M35.7,26.2c0.1,0,0.1-0.1,0.2-0.1c0.1,0,0.2,0.1,0.2,0.2c0,0.1-0.1,0.2-0.2,0.2C35.8,26.4,35.7,26.3,35.7,26.2   C35.7,26.2,35.7,26.2,35.7,26.2z"/><path d="M35.8,23.9c0-0.1-0.1-0.1-0.1-0.2c0-0.1,0.1-0.2,0.2-0.2c0.1,0,0.2,0.1,0.2,0.2C36,23.8,35.9,23.8,35.8,23.9   C35.9,23.9,35.9,23.9,35.8,23.9z"/><path d="M35.8,25.2c0-0.1-0.1-0.1-0.1-0.2c0-0.1,0.1-0.2,0.2-0.2c0.1,0,0.2,0.1,0.2,0.2C36,25.1,35.9,25.1,35.8,25.2   C35.9,25.2,35.8,25.2,35.8,25.2z"/><path d="M33.3,26.9c-0.1,0-0.1,0.1-0.2,0.1C33.1,27,33,27,33,26.9c0-0.1,0.1-0.1,0.1-0.1C33.2,26.7,33.3,26.8,33.3,26.9   C33.3,26.9,33.3,26.9,33.3,26.9z"/><path d="M33.2,29.2c0,0.1,0.1,0.1,0.1,0.2c0,0.1-0.1,0.1-0.1,0.1c-0.1,0-0.2,0-0.2-0.1C33,29.4,33.1,29.3,33.2,29.2   C33.1,29.2,33.2,29.2,33.2,29.2z"/><path d="M33.3,28.2c-0.1,0-0.1,0.1-0.2,0.1c-0.1,0-0.2-0.1-0.1-0.2c0-0.1,0.1-0.1,0.1-0.1C33.2,28,33.3,28.1,33.3,28.2   C33.3,28.1,33.3,28.2,33.3,28.2z"/><path d="M35,28c0,0.1,0.1,0.1,0.1,0.2c0,0.1-0.1,0.1-0.2,0.1c0,0-0.1-0.1-0.1-0.1C34.8,28.1,34.9,28,35,28C35,28,35,28,35,28z"/><path d="M33.3,25.6c-0.1,0-0.1,0.1-0.2,0.1c-0.1,0-0.1-0.1-0.1-0.1c0,0,0.1-0.1,0.1-0.1C33.2,25.5,33.3,25.5,33.3,25.6   C33.3,25.6,33.3,25.6,33.3,25.6z"/><path d="M35,26.7c0,0.1,0.1,0.1,0.1,0.2c0,0.1-0.1,0.1-0.1,0.1c0,0-0.1-0.1-0.1-0.1C34.8,26.8,34.9,26.8,35,26.7   C34.9,26.7,35,26.7,35,26.7z"/><path d="M34.9,25.8c0-0.1-0.1-0.1-0.1-0.2c0,0,0.1-0.1,0.1-0.1c0.1,0,0.2,0,0.2,0.1C35.1,25.7,35,25.7,34.9,25.8   C35,25.8,35,25.8,34.9,25.8z"/><path d="M34.9,24.5c0-0.1-0.1-0.1-0.1-0.2c0-0.1,0.1-0.1,0.1-0.1c0.1,0,0.2,0,0.2,0.1C35.1,24.4,35,24.4,34.9,24.5   C35,24.5,35,24.5,34.9,24.5z"/><path d="M34.1,25.2C34,25.1,33.9,25,33.9,25c0,0,0.1-0.1,0.1-0.1c0,0,0.1,0.1,0.1,0.1C34.2,25,34.1,25.1,34.1,25.2z"/><path d="M34.2,28.8c-0.1,0.1-0.1,0.1-0.2,0.1c0,0-0.1-0.1-0.1-0.1c0,0,0.1-0.1,0.1-0.1C34.1,28.7,34.2,28.7,34.2,28.8z"/><path d="M34.1,26.1c0.1,0.1,0.1,0.1,0.1,0.2c0,0-0.1,0.1-0.1,0.1c0,0-0.1-0.1-0.1-0.1C33.9,26.2,34,26.1,34.1,26.1z"/><path d="M34.1,27.3c0.1,0.1,0.1,0.1,0.1,0.2c0,0-0.1,0.1-0.1,0.1c0,0-0.1-0.1-0.1-0.1C33.9,27.5,34,27.4,34.1,27.3z"/>
</svg>
