<?xml version="1.0" encoding="utf-8"?>
<!-- Generator: Adobe Illustrator 19.1.0, SVG Export Plug-In . SVG Version: 6.00 Build 0)  -->
<svg version="1.1" id="Layer_1" xmlns="http://www.w3.org/2000/svg" xmlns:xlink="http://www.w3.org/1999/xlink" x="0px" y="0px"
	 viewBox="0 0 36 36" style="enable-background:new 0 0 36 36;" xml:space="preserve">
<style type="text/css">
	.st0{fill:#2AAAE2;}
</style>
<g>
	<path class="st0" d="M31.2,18c-0.2,0-0.4,0-0.5,0.1c-0.1,0.1-0.3,0.2-0.3,0.3v0.4c0,0.5,0.1,0.8,0.2,1c0.2,0.2,0.4,0.4,0.7,0.4
		c0.2,0,0.4-0.1,0.6-0.3c0.1-0.2,0.2-0.5,0.2-0.8c0-0.3-0.1-0.6-0.2-0.8S31.4,18,31.2,18z"/>
	<path class="st0" d="M26.2,10.2H10.7v15.5h15.5V10.2z M21.3,19.8h-1v2h-1.8v-2h-3.8l-0.1-1.1l3.8-6.1h1.9v5.8h1V19.8z"/>
	<polygon class="st0" points="18.2,15.3 16.3,18.4 18.4,18.4 18.4,15 18.3,15 	"/>
	<path class="st0" d="M0,0v36h36V0H0z M6.9,20.9H3v-0.7l1.8-2c0.3-0.3,0.5-0.6,0.6-0.8c0.1-0.2,0.2-0.4,0.2-0.6
		c0-0.2-0.1-0.4-0.2-0.6S5.1,16,4.9,16c-0.3,0-0.5,0.1-0.6,0.3c-0.1,0.2-0.2,0.4-0.2,0.7H3l0,0c0-0.5,0.2-0.9,0.5-1.3
		s0.8-0.5,1.4-0.5c0.6,0,1,0.2,1.4,0.5s0.5,0.7,0.5,1.2c0,0.3-0.1,0.7-0.3,1c-0.2,0.3-0.5,0.7-0.9,1.1l-1,1.1l0,0h2.4V20.9z
		 M27.7,27.2H9.2V8.8h18.5V27.2z M32.5,20.4c-0.4,0.4-0.8,0.6-1.4,0.6c-0.6,0-1.1-0.2-1.5-0.6c-0.4-0.4-0.6-1-0.6-1.7v-1.1
		c0-0.7,0.2-1.3,0.6-1.8c0.4-0.4,1-0.7,1.6-0.7c0.2,0,0.4,0,0.6,0.1c0.2,0,0.4,0.1,0.5,0.2l-0.2,0.8c-0.2-0.1-0.3-0.1-0.5-0.1
		c-0.1,0-0.3,0-0.5,0c-0.3,0-0.6,0.1-0.8,0.4c-0.2,0.3-0.3,0.6-0.3,1.1l0,0c0.1-0.1,0.3-0.2,0.5-0.3c0.2-0.1,0.4-0.1,0.7-0.1
		c0.5,0,0.9,0.2,1.2,0.5c0.3,0.4,0.4,0.8,0.4,1.4C33.1,19.6,32.9,20.1,32.5,20.4z"/>
</g>
</svg>
