<?xml version="1.0" encoding="utf-8"?>
<!-- Generator: Adobe Illustrator 19.1.0, SVG Export Plug-In . SVG Version: 6.00 Build 0)  -->
<svg version="1.1" id="Layer_1" xmlns="http://www.w3.org/2000/svg" xmlns:xlink="http://www.w3.org/1999/xlink" x="0px" y="0px"
	 viewBox="0 0 36 36" style="enable-background:new 0 0 36 36;" xml:space="preserve">
<style type="text/css">
	.st0{fill:#2AAAE2;}
</style>
<g>
	<path class="st0" d="M0,0v36h36V0H0z M5.6,20.9H4.5v-4.7H3.3v-0.8l2.3-0.2V20.9z M27.7,27.2H9.2V8.8h18.5V27.2z M32.5,20.5
		c-0.3,0.4-0.8,0.5-1.4,0.5c-0.5,0-1-0.1-1.3-0.4c-0.4-0.3-0.6-0.7-0.5-1.2l0,0l1.1-0.1c0,0.3,0.1,0.5,0.2,0.6
		c0.1,0.1,0.3,0.2,0.6,0.2c0.3,0,0.5-0.1,0.6-0.3s0.2-0.4,0.2-0.7c0-0.3-0.1-0.6-0.2-0.8S31.3,18,31,18c-0.2,0-0.4,0-0.5,0.1
		c-0.1,0.1-0.2,0.2-0.2,0.3l-1-0.1l0.3-3.2h3.2v0.9h-2.2l-0.2,1.3c0.1-0.1,0.2-0.1,0.4-0.2s0.3-0.1,0.5-0.1c0.5,0,1,0.2,1.3,0.5
		c0.3,0.3,0.5,0.8,0.5,1.4C33,19.6,32.8,20.1,32.5,20.5z"/>
	<path class="st0" d="M26.2,10.2H10.7v15.5h15.5V10.2z M20.1,21.2c-0.6,0.5-1.4,0.7-2.4,0.7c-0.9,0-1.6-0.2-2.2-0.7
		c-0.6-0.5-0.9-1.1-0.9-1.9l0,0h1.8c0,0.4,0.1,0.6,0.4,0.9s0.6,0.3,1,0.3c0.4,0,0.8-0.1,1-0.4c0.2-0.2,0.4-0.6,0.4-1
		c0-0.5-0.1-0.8-0.4-1.1s-0.6-0.3-1.1-0.3h-1v-1.4h1c0.4,0,0.8-0.1,1-0.3s0.3-0.6,0.3-1c0-0.4-0.1-0.7-0.3-0.9s-0.5-0.3-0.9-0.3
		c-0.3,0-0.6,0.1-0.9,0.3c-0.2,0.2-0.4,0.5-0.4,0.8h-1.8l0,0c0-0.7,0.3-1.3,0.8-1.8c0.6-0.5,1.3-0.7,2.2-0.7c1,0,1.7,0.2,2.3,0.7
		s0.9,1.1,0.9,2c0,0.4-0.1,0.8-0.4,1.1c-0.3,0.4-0.6,0.6-1,0.8c0.5,0.2,0.9,0.5,1.2,0.8c0.3,0.4,0.4,0.8,0.4,1.3
		C21,20.1,20.7,20.7,20.1,21.2z"/>
</g>
</svg>
