<svg xmlns="http://www.w3.org/2000/svg" xmlns:xlink="http://www.w3.org/1999/xlink" version="1.1" x="0px" y="0px" viewBox="0 0 100 125" enable-background="new 0 0 100 100" xml:space="preserve">
    <g>
        <path fill="white" d="M9.203,66.688H91.73V25.949H9.203V66.688z M5.747,25.247c0-1.553,1.256-2.81,2.81-2.81h83.82      c1.552,0,2.81,1.257,2.81,2.81v42.846c0,1.553-1.258,2.81-2.81,2.81H59.919v4.741c0,0.31-0.05,0.604-0.141,0.878h8.394      c1.068,0,1.932,0.865,1.932,1.932c0,1.067-0.863,1.932-1.932,1.932H33.404c-1.067,0-1.933-0.864-1.933-1.932      c0-0.533,0.219-1.019,0.57-1.369c0.344-0.345,0.828-0.562,1.362-0.562h8.394c-0.092-0.274-0.141-0.568-0.141-0.878v-4.741H8.557      c-1.554,0-2.81-1.257-2.81-2.81V25.247z" />
    </g>
    <polygon fill="white" points="45.169,38.326 60.835,47.37 45.169,56.416 " />
</svg>
