<svg version="1" xmlns="http://www.w3.org/2000/svg" width="140" height="140" viewBox="0 0 140 140"><path fill="#F3F3F3" d="M1 1h138v138H1z"/><path fill="#CDCCCC" d="M138 2v136H2V2h136m2-2H0v140h140V0z"/><g fill="#2A3052"><path d="M43.824 61.804l-8.763 11.28-8.607-12.725-7.307 11.033h-6.32v3.933h8.432l5.23-7.897 8.35 12.348 9.184-11.823 5.776 6.51h8.25l-5.277 5.277 5.56.002 7.437-7.433-7.27-7.27h-5.562l5.492 5.49h-6.86zM10 81.245h59v2.622H10zM10 57.238h59v2.624H10zM67 42.5v55H12v-55h55m2-2H10v59h59v-59z"/></g><g fill="#2A3052"><path d="M124.444 53.125l-3.188-10.017-9.8 3.117-2.553 4.94 6.872-2.188-4.53 8.136H90.24l-1.458-2.765-1.53 2.765H71v2.746h14.735L79.84 70.532h-6.217v3.933h8.534l6.546-11.84 8.92 16.902H71v2.728h28.063l1.312 2.483 1.38-2.484H130v-2.728h-26.728l10.948-19.67H130v-2.745h-7.62l2.064-3.988zm-23.98 23.36L91.69 59.86h18.026l-9.25 16.626zm15.285-19.37l3.714-6.673 2.124 6.672h-5.84zM100.5 11v59zM128 42.5v55H73v-55h55m2-2H71v59h59v-59z"/></g></svg>