<svg xmlns="http://www.w3.org/2000/svg" data-name="Layer 1" viewBox="10 10 80 75" x="0px" y="0px">
    <g fill="#fff">
        <path d="M18.3,50.7a4.27,4.27,0,1,1,4.27-4.27A4.28,4.28,0,0,1,18.3,50.7Zm0-6.55a2.27,2.27,0,1,0,2.27,2.27A2.28,2.28,0,0,0,18.3,44.15Z"/>
        <path d="M93.5,83H6.5a1,1,0,0,1,0-2h87A1,1,0,0,1,93.5,83Z"/>
        <path d="M23.3,82.81h-10a1,1,0,0,1-1-1V58a1,1,0,0,1,1-1h10a1,1,0,0,1,1,1V81.81A1,1,0,0,1,23.3,82.81Zm-9-2h8V59h-8V80.81Z"/>
        <path d="M34.29,37.7a4.27,4.27,0,1,1,4.27-4.27A4.28,4.28,0,0,1,34.29,37.7Zm0-6.55a2.27,2.27,0,1,0,2.27,2.27A2.28,2.28,0,0,0,34.29,31.15Z"/>
        <path d="M39.29,82.81h-10a1,1,0,0,1-1-1V45a1,1,0,0,1,1-1h10a1,1,0,0,1,1,1V81.81A1,1,0,0,1,39.29,82.81Zm-9-2h8V46h-8V80.81Z"/>
        <path d="M50.32,46.7a4.27,4.27,0,1,1,4.27-4.27A4.28,4.28,0,0,1,50.32,46.7Zm0-6.55a2.27,2.27,0,1,0,2.27,2.27A2.28,2.28,0,0,0,50.32,40.15Z"/>
        <path d="M55.32,82.81h-10a1,1,0,0,1-1-1V54a1,1,0,0,1,1-1h10a1,1,0,0,1,1,1V81.81A1,1,0,0,1,55.32,82.81Zm-9-2h8V55h-8V80.81Z"/>
        <path d="M66.31,31.7a4.27,4.27,0,1,1,4.27-4.27A4.28,4.28,0,0,1,66.31,31.7Zm0-6.55a2.27,2.27,0,1,0,2.27,2.27A2.28,2.28,0,0,0,66.31,25.15Z"/>
        <path d="M71.31,82.81h-10a1,1,0,0,1-1-1V39a1,1,0,0,1,1-1h10a1,1,0,0,1,1,1V81.81A1,1,0,0,1,71.31,82.81Zm-9-2h8V40h-8V80.81Z"/>
        <path d="M82.31,25.7a4.27,4.27,0,1,1,4.27-4.27A4.28,4.28,0,0,1,82.31,25.7Zm0-6.55a2.27,2.27,0,1,0,2.27,2.27A2.28,2.28,0,0,0,82.31,19.15Z"/>
        <path d="M87.31,82.81h-10a1,1,0,0,1-1-1V33a1,1,0,0,1,1-1h10a1,1,0,0,1,1,1V81.81A1,1,0,0,1,87.31,82.81Zm-9-2h8V34h-8V80.81Z"/>
        <path d="M69.48,27.24a1,1,0,0,1-.35-1.94l9.76-3.66a1,1,0,0,1,.7,1.87l-9.76,3.66A1,1,0,0,1,69.48,27.24Z"/>
        <path d="M52.7,41.19A1,1,0,0,1,52,39.46L63.24,28.93a1,1,0,1,1,1.37,1.46L53.39,40.92A1,1,0,0,1,52.7,41.19Z"/>
        <path d="M47.46,41.82A1,1,0,0,1,47,41.69L36.66,35.9a1,1,0,1,1,1-1.74L48,39.95A1,1,0,0,1,47.46,41.82Z"/>
        <path d="M20.84,45.36a1,1,0,0,1-.63-1.78l10.92-8.87a1,1,0,0,1,1.26,1.55L21.47,45.14A1,1,0,0,1,20.84,45.36Z"/>
    </g>
</svg>
