<svg xmlns="http://www.w3.org/2000/svg" xmlns:xlink="http://www.w3.org/1999/xlink" version="1.1" x="0px" y="0px" viewBox="10 10 80 80" enable-background="new 0 0 100 100" xml:space="preserve">
    <path fill="#2a3052"
        d="M87,29.007C87,25.137,83.863,22,79.993,22H18.007C14.137,22,11,25.137,11,29.007v43.985  C11,76.863,14.137,80,18.007,80h61.985C83.863,80,87,76.863,87,72.993V29.007z M39,76V26h20v50H39z M83,29v43.993  C83,74.651,81.658,76,80,76H63V26h17C81.658,26,83,27.342,83,29z M15,29c0-1.658,1.342-3,3-3h17v50H18c-1.658,0-3-1.349-3-3.007V29z  "/>
</svg>
