<svg xmlns="http://www.w3.org/2000/svg" viewBox="0 0 48 48">
    <path d="M24,2A22,22,0,1,1,2,24,22,22,0,0,1,24,2m0-2A24,24,0,1,0,48,24,24,24,0,0,0,24,0Z"/>
    <polygon points="22.84 13.71 24 12.86 25.17 13.71 24.73 12.34 25.92 11.48 24.45 11.48 24 10.09 23.56 11.48 22.09 11.48 23.28 12.34 22.84 13.71"/>
    <polygon points="16.79 15.34 17.96 14.49 19.13 15.34 18.68 13.96 19.87 13.11 18.41 13.11 17.96 11.71 17.51 13.11 16.05 13.11 17.23 13.96 16.79 15.34"/>
    <polygon points="13.53 16.14 13.08 17.55 11.62 17.54 12.81 18.39 12.37 19.77 13.53 18.92 14.7 19.77 14.26 18.39 15.44 17.54 13.98 17.54 13.53 16.14"/>
    <polygon points="11.91 24.96 13.08 25.82 12.63 24.44 13.82 23.58 12.36 23.58 11.91 22.18 11.46 23.59 10 23.58 11.18 24.44 10.74 25.82 11.91 24.96"/>
    <polygon points="13.98 29.64 13.53 28.24 13.08 29.64 11.62 29.64 12.81 30.49 12.37 31.87 13.53 31.02 14.7 31.87 14.26 30.49 15.44 29.64 13.98 29.64"/>
    <polygon points="18.41 34.08 17.96 32.68 17.52 34.08 16.06 34.08 17.24 34.92 16.8 36.3 17.96 35.46 19.14 36.3 18.69 34.92 19.88 34.08 18.41 34.08"/>
    <polygon points="24.45 35.68 24 34.28 23.56 35.68 22.09 35.68 23.28 36.53 22.84 37.91 24 37.06 25.17 37.91 24.73 36.53 25.92 35.68 24.45 35.68"/>
    <polygon points="30.5 34.08 30.05 32.68 29.6 34.08 28.14 34.08 29.32 34.92 28.88 36.3 30.05 35.46 31.21 36.3 30.77 34.92 31.96 34.08 30.5 34.08"/>
    <polygon points="34.93 29.64 34.48 28.24 34.03 29.64 32.57 29.64 33.76 30.49 33.31 31.87 34.48 31.02 35.65 31.87 35.2 30.49 36.39 29.64 34.93 29.64"/>
    <polygon points="38 23.57 36.53 23.57 36.08 22.17 35.64 23.57 34.18 23.57 35.36 24.42 34.92 25.8 36.08 24.95 37.26 25.8 36.81 24.42 38 23.57"/>
    <polygon points="33.31 19.75 34.48 18.9 35.65 19.75 35.2 18.38 36.39 17.52 34.93 17.52 34.48 16.13 34.03 17.53 32.57 17.52 33.76 18.38 33.31 19.75"/>
    <polygon points="30.06 11.71 29.61 13.11 28.15 13.11 29.34 13.96 28.9 15.34 30.06 14.49 31.23 15.34 30.79 13.96 31.97 13.11 30.51 13.11 30.06 11.71"/>
</svg>
