<svg xmlns="http://www.w3.org/2000/svg" xmlns:xlink="http://www.w3.org/1999/xlink" version="1.1" x="0px" y="0px" viewBox="0 0 100 125" enable-background="new 0 0 100 100" xml:space="preserve">
    <path d="M94.48,88.836H5.52c-3.043,0-5.52-2.475-5.52-5.52V55.352c0-3.043,2.476-5.52,5.52-5.52H94.48   c3.044,0,5.52,2.477,5.52,5.52v27.965C100,86.361,97.524,88.836,94.48,88.836z M5.52,53.512c-1.015,0-1.84,0.826-1.84,1.84v27.965   c0,1.016,0.825,1.84,1.84,1.84H94.48c1.015,0,1.84-0.824,1.84-1.84V55.352c0-1.014-0.825-1.84-1.84-1.84H5.52z"/><path d="M29.082,52.96c-0.322,0-0.647-0.085-0.943-0.262c-0.872-0.521-1.156-1.651-0.634-2.523l17.038-28.473   c0.522-0.873,1.653-1.155,2.524-0.634c0.872,0.522,1.156,1.652,0.634,2.523L30.662,52.064C30.317,52.641,29.707,52.96,29.082,52.96   z"/><path d="M70.919,52.96c-0.626,0-1.235-0.319-1.581-0.896l-16.881-28.21c-0.521-0.872-0.238-2.001,0.634-2.523   c0.872-0.521,2.002-0.239,2.524,0.634l16.881,28.21c0.521,0.872,0.238,2.002-0.634,2.523C71.566,52.875,71.24,52.96,70.919,52.96z"/><path d="M50,25.583c-3.976,0-7.21-3.234-7.21-7.209s3.234-7.209,7.21-7.209c3.975,0,7.209,3.234,7.209,7.209   S53.975,25.583,50,25.583z M50,14.843c-1.946,0-3.53,1.583-3.53,3.53s1.584,3.53,3.53,3.53s3.529-1.583,3.529-3.53   S51.946,14.843,50,14.843z"/>
    <path d="M35.594,69.43c0,3.018-0.539,5.299-1.617,6.842c-1.078,1.545-2.644,2.316-4.696,2.316c-2.061,0-3.64-0.77-4.735-2.309    s-1.643-3.822-1.643-6.85c0-3.002,0.543-5.275,1.63-6.824c1.086-1.548,2.665-2.322,4.734-2.322c2.044,0,3.609,0.77,4.696,2.31    C35.051,64.133,35.594,66.41,35.594,69.43z M32.528,69.437c0-2.099-0.244-3.749-0.731-4.953s-1.339-1.807-2.555-1.807    c-1.216,0-2.065,0.604-2.548,1.813c-0.483,1.207-0.724,2.857-0.724,4.946c0,2.054,0.237,3.694,0.711,4.919    c0.474,1.227,1.341,1.84,2.6,1.84c1.182,0,2.018-0.594,2.51-1.779C32.282,73.229,32.528,71.568,32.528,69.437z"/>
    <path d="M38.388,60.607h4.373c1.397,0,2.531,0.131,3.402,0.395c0.871,0.263,1.604,0.845,2.199,1.746    c0.595,0.9,0.893,1.986,0.893,3.253c0,1.165-0.242,2.165-0.725,3.001c-0.483,0.837-1.132,1.44-1.947,1.812    c-0.815,0.37-2.068,0.556-3.758,0.556h-1.513v6.895h-2.924V60.607z M41.312,62.871v6.157h1.449c1.293,0,2.188-0.241,2.684-0.725    c0.496-0.483,0.744-1.268,0.744-2.354c0-0.811-0.164-1.468-0.492-1.973c-0.328-0.504-0.688-0.814-1.08-0.932    c-0.393-0.115-1.011-0.174-1.856-0.174H41.312z"/><path d="M51.48,60.607h10.115v2.341h-7.192v5.045h5.641v2.354h-5.641v5.523h7.309v2.393H51.48V60.607z"/><path d="M63.575,60.607h3.443l5.806,12.729V60.607h2.445v17.656H72.54l-6.52-14.139v14.139h-2.445V60.607z"/>
</svg>
