<svg xmlns="http://www.w3.org/2000/svg" xmlns:xlink="http://www.w3.org/1999/xlink" version="1.1" x="0px" y="0px" viewBox="0 0 100 100" enable-background="new 0 0 100 100" xml:space="preserve">
    <g fill="white">
        <path d="M41.6,30.9c0.5,0,1.1-0.1,1.6-0.2c3.6-0.9,5.8-4.5,4.9-8.1c-0.7-3-3.4-5.1-6.5-5.1c-0.5,0-1.1,0.1-1.6,0.2    c-1.7,0.4-3.2,1.5-4.1,3c-0.9,1.5-1.2,3.3-0.8,5.1C35.8,28.8,38.5,30.9,41.6,30.9z M40.1,23.3c0.2-0.4,0.6-0.7,1.1-0.8    c0.1,0,0.3-0.1,0.4-0.1c0.8,0,1.5,0.5,1.7,1.3c0.2,0.9-0.3,1.8-1.3,2.1c-0.9,0.2-1.8-0.4-2.1-1.3C39.8,24.1,39.9,23.7,40.1,23.3z"/>
        <path d="M55,68.4c-0.7,0-1.3,0.1-2,0.2c-4.4,1.1-7.2,5.6-6.1,10c0.9,3.7,4.2,6.3,8,6.3c0.7,0,1.3-0.1,2-0.2c2.2-0.5,4-1.9,5.1-3.8    c1.1-1.9,1.5-4.1,1-6.3C62.2,71,58.9,68.4,55,68.4z M57.8,78.4c-0.5,0.8-1.2,1.3-2,1.5c-1.8,0.4-3.6-0.7-4-2.4    c-0.4-1.8,0.6-3.5,2.4-4c0.3-0.1,0.5-0.1,0.8-0.1c1.5,0,2.8,1,3.2,2.5C58.4,76.8,58.3,77.7,57.8,78.4z"/>
        <path d="M24.5,43c1,0.6,2.2,1,3.5,1c2.3,0,4.5-1.2,5.7-3.2c0.9-1.5,1.2-3.3,0.8-5.1c-0.4-1.7-1.5-3.2-3-4.1c-1-0.6-2.2-1-3.5-1    c-2.3,0-4.5,1.2-5.7,3.2c-0.9,1.5-1.2,3.3-0.8,5.1C21.9,40.6,23,42.1,24.5,43z M26.5,36.4c0.3-0.5,0.9-0.8,1.5-0.8    c0.3,0,0.6,0.1,0.9,0.2c0.4,0.2,0.7,0.6,0.8,1.1s0,0.9-0.2,1.3c-0.5,0.8-1.6,1.1-2.4,0.6c-0.4-0.2-0.7-0.6-0.8-1.1    S26.3,36.8,26.5,36.4z"/>
        <path d="M23.7,62.4c0.6,0,1.2-0.1,1.7-0.2c1.9-0.5,3.5-1.6,4.5-3.3c1-1.7,1.3-3.6,0.8-5.5c-0.8-3.2-3.7-5.5-7-5.5    c-0.6,0-1.2,0.1-1.7,0.2c-3.9,1-6.3,4.9-5.3,8.8C17.5,60.1,20.4,62.4,23.7,62.4z M23.2,53c0.2,0,0.4-0.1,0.5-0.1    c1,0,1.9,0.7,2.2,1.7c0.1,0.6,0.1,1.2-0.3,1.7c-0.3,0.5-0.8,0.9-1.4,1c-1.2,0.3-2.4-0.5-2.7-1.6C21.2,54.5,22,53.3,23.2,53z"/>
        <path d="M93.2,11.8c-1.2-1.2-2.7-1.8-4.3-1.8c-1.6,0-3.1,0.6-4.2,1.7l-3.3,3.1c-0.9-0.7-1.8-1.3-2.7-1.9c-7.8-5-16.9-7.6-26.4-7.6    C26.2,5.4,5,25.4,5,50c0,10,3.5,19.3,9.4,26.7c-0.2,0.4-0.4,0.8-0.5,1.3c-0.5,1.6-1.8,2.9-3.4,3.4l-3.8,1.3    c-0.7,0.2-1.2,0.7-1.5,1.4c-0.3,0.7-0.3,1.4,0.1,2.1c2,3.9,5.9,6.3,10.3,6.3c0.6,0,1.1,0,1.7-0.1l0.3-0.1c3.7-0.6,7.3-2,10.3-4.1    c7.1,4.1,15.5,6.4,24.4,6.4c12.5,0,24.3-4.6,33.2-12.8c1.1-1,2.1-2,3-3.1c6.3-6.8,8.2-13.4,5.1-18.2c-4-6.4-12.1-7.3-18.5-8.1    c-3.3-0.4-6.7-0.8-8.2-1.9c-0.5-0.3-0.8-0.8-0.9-1.3l7.1-7.5c1.1-0.2,2.1-0.4,3.2-0.6c4.8-0.8,9.3-1.5,10.9-4.8    c1.7-3.5,2.1-7.3,1.4-10.9l4.8-5.1C95.6,18,95.5,14.2,93.2,11.8z M10,50c0-21.8,19-39.6,42.2-39.6c8.5,0,16.7,2.4,23.7,6.8    c0.6,0.4,1.2,0.8,1.7,1.2L38.3,55.7c0,0,0,0,0,0c0,0,0,0,0,0L23.6,70.4l-3.2,1.1c-1,0.3-1.9,0.8-2.7,1.4C12.9,66.4,10,58.5,10,50z     M40,61.1l4,4L32.5,76.5l-4-4L40,61.1z M16.8,87.4l-0.3,0.1c-1.7,0.2-3.4-0.2-4.7-1.2l0.3-0.1c3.1-1,5.6-3.5,6.6-6.6    c0.5-1.6,1.8-2.9,3.4-3.4l2.3-0.8l4.9,4.9C26.1,84.1,21.7,86.7,16.8,87.4z M74.5,57.4c5.7,0.7,12.1,1.4,14.9,5.8    c2.5,4-2.9,10.3-4.6,12.1c-0.9,1-1.8,1.9-2.7,2.8c-8,7.4-18.5,11.5-29.8,11.5c-7.4,0-14.3-1.8-20.3-4.9c0.9-1,1.7-2,2.5-3.1    c0,0,14.9-14.9,14.9-14.9c0,0,13-13.7,13-13.7c0.5,0.6,1,1.2,1.7,1.6C66.5,56.5,70.4,56.9,74.5,57.4z M82.6,34.1    c-0.3,0.6-2,1.1-3.8,1.5l4.9-5.2C83.6,31.7,83.2,33,82.6,34.1z M89.7,16.9L47.5,61.5l-3.9-3.9l44.5-42.2c0.2-0.2,0.5-0.3,0.8-0.3    c0.2,0,0.5,0,0.8,0.3C90.1,15.8,90.1,16.5,89.7,16.9z"/>
    </g>
</svg>
