<svg xmlns="http://www.w3.org/2000/svg" xmlns:xlink="http://www.w3.org/1999/xlink" version="1.1" x="0px" y="0px" viewBox="0 10 90 80" enable-background="new 0 0 90 90" xml:space="preserve">
    <path fill="white" d="M62.695,20.406c-1.493-0.812-3.356-0.261-4.168,1.231L40.102,48.386l-0.233,0.297  c-0.203,0.268-0.396,0.549-0.561,0.853c-0.394,0.722-0.63,1.486-0.736,2.256c-0.368,2.652,0.898,5.373,3.39,6.729  c2.492,1.355,5.464,0.939,7.491-0.81c0.589-0.507,1.102-1.122,1.495-1.844c0.165-0.304,0.295-0.618,0.408-0.934l0.125-0.358  l12.445-30.002C64.735,23.082,64.185,21.217,62.695,20.406z M47.142,54.098c-0.644,1.184-2.123,1.62-3.307,0.977  c-1.183-0.643-1.62-2.123-0.977-3.306s2.124-1.62,3.307-0.977S47.785,52.915,47.142,54.098z" />
    <path fill="white" d="M16.374,50.93c0-15.784,12.842-28.625,28.626-28.625c3.335,0,6.536,0.579,9.515,1.632l2.313-3.358  c0.18-0.314,0.398-0.596,0.635-0.859c-3.12-1.247-6.463-2.056-9.963-2.313v-6.973c0-1.381-1.119-2.5-2.5-2.5s-2.5,1.119-2.5,2.5  v6.973c-7.405,0.545-14.14,3.484-19.438,8.052l-4.93-4.93c-0.976-0.977-2.56-0.977-3.535,0c-0.977,0.976-0.977,2.559,0,3.535  l4.931,4.93c-4.567,5.298-7.506,12.033-8.051,19.438H4.504c-1.381,0-2.5,1.119-2.5,2.5s1.119,2.5,2.5,2.5h6.974  c0.546,7.404,3.486,14.137,8.056,19.434l-4.935,4.934c-0.977,0.977-0.977,2.559,0,3.535c0.488,0.488,1.128,0.732,1.768,0.732  s1.28-0.244,1.768-0.732l4.931-4.93c0.002,0.002,0.004,0.004,0.007,0.006l3.553-3.555C20.363,67.602,16.374,59.725,16.374,50.93z" />
    <path fill="white" d="M85.496,48.43h-6.974c-0.545-7.405-3.484-14.14-8.051-19.438l4.931-4.931c0.977-0.976,0.977-2.559,0-3.535  c-0.977-0.977-2.559-0.977-3.535,0l-4.931,4.931c-0.298-0.256-0.615-0.488-0.922-0.734c-0.08,0.236-0.159,0.473-0.276,0.701  l-1.717,4.139c5.887,5.247,9.604,12.879,9.604,21.367c0,8.805-3.997,16.689-10.27,21.943l3.554,3.555  c0.01-0.01,0.019-0.018,0.028-0.027l4.931,4.932c0.488,0.488,1.128,0.732,1.768,0.732s1.279-0.244,1.768-0.732  c0.977-0.977,0.977-2.559,0-3.535l-4.934-4.934c4.567-5.297,7.507-12.029,8.053-19.434h6.974c1.381,0,2.5-1.119,2.5-2.5  S86.877,48.43,85.496,48.43z"  />
</svg>
