<svg xmlns="http://www.w3.org/2000/svg" xmlns:xlink="http://www.w3.org/1999/xlink" version="1.1" x="0px" y="0px" viewBox="0 0 100 125" enable-background="new 0 0 100 100" xml:space="preserve">
    <g>
        <path fill="#fff" d="M50,45.22c-2.06,0-3.731-1.67-3.731-3.731V8.731C46.269,6.67,47.94,5,50,5s3.731,1.67,3.731,3.731V41.49   C53.731,43.55,52.06,45.22,50,45.22z" />
    </g>
    <g>
        <path fill="#fff" d="M50,95C27.822,95,9.78,76.957,9.78,54.78c0-14.659,7.983-28.164,20.832-35.246c1.803-0.994,4.073-0.339,5.068,1.466   c0.995,1.804,0.338,4.073-1.466,5.068c-10.469,5.77-16.972,16.772-16.972,28.712c0,18.064,14.695,32.759,32.759,32.759   S82.759,72.843,82.759,54.78c0-12.024-6.57-23.062-17.146-28.808c-1.811-0.983-2.481-3.248-1.497-5.058   c0.983-1.81,3.25-2.481,5.058-1.497C82.156,26.469,90.22,40.019,90.22,54.78C90.22,76.957,72.178,95,50,95z"
        />
    </g>
</svg>
