<svg xmlns="http://www.w3.org/2000/svg" xmlns:xlink="http://www.w3.org/1999/xlink" viewBox="20 15 60 70" version="1.1" x="0px" y="0px">
    <g transform="translate(0,-952.3622)" fill="#fff" >
        <path d="m 42.191744,966.41289 a 1.1242312,1.1242312 0 0 0 -0.655444,0.3278 l -7.67806,7.67806 a 1.1255146,1.1255146 0 1 0 1.591793,1.59164 l 6.882163,-6.88209 6.835346,6.88209 a 1.1242312,1.1242312 0 0 0 1.591793,0 l 6.882163,-6.88209 6.835346,6.88209 a 1.1255146,1.1255146 0 0 0 1.591793,-1.59164 l -7.631242,-7.67806 a 1.1242312,1.1242312 0 0 0 -1.591793,0 l -6.882163,6.88209 -6.835346,-6.88209 a 1.1242312,1.1242312 0 0 0 -0.936349,-0.3278 z"
        />
        <path d="m 72.716713,966.41289 a 1.1242312,1.1242312 0 0 0 -0.561809,0.3278 l -7.67806,7.67806 a 1.1255146,1.1255146 0 1 0 1.591793,1.59164 l 7.67806,-7.67806 a 1.1242312,1.1242312 0 0 0 -1.029984,-1.91944 z"
         />
        <path d="m 26.788807,966.41289 a 1.1242312,1.1242312 0 0 0 -0.561809,1.91944 l 7.631242,7.67806 a 1.1255146,1.1255146 0 1 0 1.591793,-1.59164 l -7.631242,-7.67806 a 1.1242312,1.1242312 0 0 0 -1.029984,-0.3278 z"
         />
        <path d="m 26.788807,966.41289 a 1.1242312,1.1242312 0 0 0 -0.889531,1.12362 l 0,69.66439 a 1.1242312,1.1242312 0 1 0 2.247237,0 l 0,-69.66439 a 1.1242312,1.1242312 0 0 0 -1.357706,-1.12362 z"
         />
        <path d="m 72.903983,966.36615 a 1.1242312,1.1242312 0 0 0 -1.029984,1.17036 l 0,69.61759 a 1.1242312,1.1242312 0 1 0 2.247237,0 l 0,-69.61759 a 1.1242312,1.1242312 0 0 0 -1.217253,-1.17036 z"
         />
        <path d="m 34.607319,1028.3524 a 1.1242312,1.1242312 0 0 0 -0.655444,1.9662 l 7.631242,7.6313 a 1.1242312,1.1242312 0 0 0 1.591793,0 l 6.882163,-6.8353 6.835346,6.8353 a 1.1242312,1.1242312 0 0 0 1.591793,0 l 7.67806,-7.6313 a 1.1255146,1.1255146 0 1 0 -1.591793,-1.5916 l -6.882163,6.8352 -6.835346,-6.8352 a 1.1242312,1.1242312 0 0 0 -1.591793,0 l -6.882163,6.8352 -6.835346,-6.8352 a 1.1242312,1.1242312 0 0 0 -0.936349,-0.3746 z"
        fill="#fff" fill-opacity="1" stroke="none" marker="none" visibility="visible" display="inline" overflow="visible" />
        <path d="m 65.225923,1028.3524 a 1.1242312,1.1242312 0 0 0 -0.655444,1.9662 l 7.631242,7.6313 a 1.1255675,1.1255675 0 1 0 1.591793,-1.5918 l -7.631242,-7.6311 a 1.1242312,1.1242312 0 0 0 -0.936349,-0.3746 z"
        fill="#fff" fill-opacity="1" stroke="none" marker="none" visibility="visible" display="inline" overflow="visible" />
        <path d="m 34.700954,1028.3524 a 1.1242312,1.1242312 0 0 0 -0.749079,0.3746 l -7.67806,7.6311 a 1.1255675,1.1255675 0 1 0 1.591793,1.5918 l 7.67806,-7.6313 a 1.1242312,1.1242312 0 0 0 -0.842714,-1.9662 z"
        fill="#fff" fill-opacity="1" stroke="none" marker="none" visibility="visible" display="inline" overflow="visible" />
        <path d="m 38.633619,987.7149 a 1.1245934,1.1245934 0 1 0 0.09363,2.24724 l 22.47237,0 a 1.1242312,1.1242312 0 1 0 0,-2.24724 l -22.47237,0 a 1.1242312,1.1242312 0 0 0 -0.09363,0 z"
        fill="#fff" fill-opacity="1" stroke="none" marker="none" visibility="visible" display="inline" overflow="visible" />
        <path d="m 38.633619,996.70385 a 1.1245934,1.1245934 0 1 0 0.09363,2.24724 l 22.47237,0 a 1.1242312,1.1242312 0 1 0 0,-2.24724 l -22.47237,0 a 1.1242312,1.1242312 0 0 0 -0.09363,0 z"
        fill="#fff" fill-opacity="1" stroke="none" marker="none" visibility="visible" display="inline" overflow="visible" />
        <path d="m 38.633619,1005.6928 a 1.1245934,1.1245934 0 1 0 0.09363,2.2472 l 22.47237,0 a 1.1242312,1.1242312 0 1 0 0,-2.2472 l -22.47237,0 a 1.1242312,1.1242312 0 0 0 -0.09363,0 z"
        fill="#fff" fill-opacity="1" stroke="none" marker="none" visibility="visible" display="inline" overflow="visible" />
        <path d="m 38.633619,1014.6817 a 1.1245934,1.1245934 0 1 0 0.09363,2.2473 l 8.988948,0 a 1.1242312,1.1242312 0 1 0 0,-2.2473 l -8.988948,0 a 1.1242312,1.1242312 0 0 0 -0.09363,0 z"
        fill="#fff" fill-opacity="1" stroke="none" marker="none" visibility="visible" display="inline" overflow="visible" />
    </g>
</svg>
