<svg xmlns="http://www.w3.org/2000/svg" xmlns:xlink="http://www.w3.org/1999/xlink" version="1.1" x="0px" y="0px" viewBox="0 0 100 100" style="enable-background:new 0 0 100 100;" xml:space="preserve">
    <path
         fill="#2a3052"
         d="M92.5,10H40V7.5C40,6.119,38.881,5,37.5,5h-30C6.119,5,5,6.119,5,7.5v85C5,93.881,6.119,95,7.5,95h85  c1.381,0,2.5-1.119,2.5-2.5V25V12.5C95,11.119,93.881,10,92.5,10z M40,15h22.5v7.5H40V15z M90,90H10V10h25v15  c0,1.381,1.119,2.5,2.5,2.5H90V90z M90,22.5H67.5V15H90V22.5z"/><path d="M12.5,31.25v55c0,0.69,0.56,1.25,1.25,1.25h72.5c0.69,0,1.25-0.56,1.25-1.25v-55c0-0.69-0.56-1.25-1.25-1.25h-72.5  C13.06,30,12.5,30.56,12.5,31.25z M15,32.5h70V85H15V32.5z"/>
</svg>
