<svg xmlns="http://www.w3.org/2000/svg" xmlns:xlink="http://www.w3.org/1999/xlink" version="1.1" x="0px" y="0px" viewBox="10 10 60 60" xml:space="preserve">
    <g>
        <path fill="#fff" d="M34.1,53.6L34.1,53.6c-1.7,0-3.1-1.4-3.1-3.1V39.4c0-1.7,1.4-3.1,3.1-3.1c0.5,0,1,0.1,1.4,0.4L46,42.3   c1,0.5,1.6,1.6,1.6,2.7S47,47.2,46,47.7l-10.5,5.6C35.1,53.5,34.6,53.6,34.1,53.6z M34.1,38.4c-0.5,0-1.1,0.4-1.1,1.1v11.1   c0,0.7,0.6,1.1,1.1,1.1l0,0c0.2,0,0.3,0,0.5-0.1L45.1,46c0.4-0.2,0.6-0.5,0.6-1s-0.2-0.8-0.6-1l-10.5-5.6   C34.4,38.4,34.3,38.4,34.1,38.4z" />
        <path fill="#fff" d="M63.9,67H13.1c-1.7,0-3.1-1.4-3.1-3.1V24.1c0-1.7,1.4-3.1,3.1-3.1h50.8c1.7,0,3.1,1.4,3.1,3.1v39.8   C67,65.6,65.6,67,63.9,67z M13.1,23c-0.6,0-1.1,0.5-1.1,1.1v39.8c0,0.6,0.5,1.1,1.1,1.1h50.8c0.6,0,1.1-0.5,1.1-1.1V24.1   c0-0.6-0.5-1.1-1.1-1.1H13.1z" />
        <path fill="#fff" d="M63,19h-2v-0.9c0-0.6-0.5-1.1-1.1-1.1H17.1c-0.6,0-1.1,0.5-1.1,1.1V19h-2v-0.9c0-1.7,1.4-3.1,3.1-3.1h42.8   c1.7,0,3.1,1.4,3.1,3.1V19z" />
    </g>
</svg>
